<?xml version="1.0" encoding="utf-8" standalone="no"?>
<!DOCTYPE svg PUBLIC "-//W3C//DTD SVG 1.1//EN"
  "http://www.w3.org/Graphics/SVG/1.1/DTD/svg11.dtd">
<svg xmlns:xlink="http://www.w3.org/1999/xlink" width="460.8pt" height="345.6pt" viewBox="0 0 460.8 345.6" xmlns="http://www.w3.org/2000/svg" version="1.1">
 <metadata>
  <rdf:RDF xmlns:dc="http://purl.org/dc/elements/1.1/" xmlns:cc="http://creativecommons.org/ns#" xmlns:rdf="http://www.w3.org/1999/02/22-rdf-syntax-ns#">
   <cc:Work>
    <dc:type rdf:resource="http://purl.org/dc/dcmitype/StillImage"/>
    <dc:date>2024-07-24T11:05:36.350915</dc:date>
    <dc:format>image/svg+xml</dc:format>
    <dc:creator>
     <cc:Agent>
      <dc:title>Matplotlib v3.8.3, https://matplotlib.org/</dc:title>
     </cc:Agent>
    </dc:creator>
   </cc:Work>
  </rdf:RDF>
 </metadata>
 <defs>
  <style type="text/css">*{stroke-linejoin: round; stroke-linecap: butt}</style>
 </defs>
 <g id="figure_1">
  <g id="patch_1">
   <path d="M 0 345.6 
L 460.8 345.6 
L 460.8 0 
L 0 0 
z
" style="fill: #ffffff"/>
  </g>
  <g id="axes_1">
   <g id="patch_2">
    <path d="M 57.6 307.584 
L 414.72 307.584 
L 414.72 41.472 
L 57.6 41.472 
z
" style="fill: #ffffff"/>
   </g>
   <g id="matplotlib.axis_1">
    <g id="xtick_1">
     <g id="line2d_1">
      <defs>
       <path id="ma563e6bdf1" d="M 0 0 
L 0 3.5 
" style="stroke: #000000; stroke-width: 0.8"/>
      </defs>
      <g>
       <use xlink:href="#ma563e6bdf1" x="73.751482" y="307.584" style="stroke: #000000; stroke-width: 0.8"/>
      </g>
     </g>
     <g id="text_1">
      <!-- 0.00 -->
      <g transform="translate(62.61867 322.182437) scale(0.1 -0.1)">
       <defs>
        <path id="DejaVuSans-30" d="M 2034 4250 
Q 1547 4250 1301 3770 
Q 1056 3291 1056 2328 
Q 1056 1369 1301 889 
Q 1547 409 2034 409 
Q 2525 409 2770 889 
Q 3016 1369 3016 2328 
Q 3016 3291 2770 3770 
Q 2525 4250 2034 4250 
z
M 2034 4750 
Q 2819 4750 3233 4129 
Q 3647 3509 3647 2328 
Q 3647 1150 3233 529 
Q 2819 -91 2034 -91 
Q 1250 -91 836 529 
Q 422 1150 422 2328 
Q 422 3509 836 4129 
Q 1250 4750 2034 4750 
z
" transform="scale(0.015625)"/>
        <path id="DejaVuSans-2e" d="M 684 794 
L 1344 794 
L 1344 0 
L 684 0 
L 684 794 
z
" transform="scale(0.015625)"/>
       </defs>
       <use xlink:href="#DejaVuSans-30"/>
       <use xlink:href="#DejaVuSans-2e" x="63.623047"/>
       <use xlink:href="#DejaVuSans-30" x="95.410156"/>
       <use xlink:href="#DejaVuSans-30" x="159.033203"/>
      </g>
     </g>
    </g>
    <g id="xtick_2">
     <g id="line2d_2">
      <g>
       <use xlink:href="#ma563e6bdf1" x="140.907265" y="307.584" style="stroke: #000000; stroke-width: 0.8"/>
      </g>
     </g>
     <g id="text_2">
      <!-- 0.02 -->
      <g transform="translate(129.774453 322.182437) scale(0.1 -0.1)">
       <defs>
        <path id="DejaVuSans-32" d="M 1228 531 
L 3431 531 
L 3431 0 
L 469 0 
L 469 531 
Q 828 903 1448 1529 
Q 2069 2156 2228 2338 
Q 2531 2678 2651 2914 
Q 2772 3150 2772 3378 
Q 2772 3750 2511 3984 
Q 2250 4219 1831 4219 
Q 1534 4219 1204 4116 
Q 875 4013 500 3803 
L 500 4441 
Q 881 4594 1212 4672 
Q 1544 4750 1819 4750 
Q 2544 4750 2975 4387 
Q 3406 4025 3406 3419 
Q 3406 3131 3298 2873 
Q 3191 2616 2906 2266 
Q 2828 2175 2409 1742 
Q 1991 1309 1228 531 
z
" transform="scale(0.015625)"/>
       </defs>
       <use xlink:href="#DejaVuSans-30"/>
       <use xlink:href="#DejaVuSans-2e" x="63.623047"/>
       <use xlink:href="#DejaVuSans-30" x="95.410156"/>
       <use xlink:href="#DejaVuSans-32" x="159.033203"/>
      </g>
     </g>
    </g>
    <g id="xtick_3">
     <g id="line2d_3">
      <g>
       <use xlink:href="#ma563e6bdf1" x="208.063048" y="307.584" style="stroke: #000000; stroke-width: 0.8"/>
      </g>
     </g>
     <g id="text_3">
      <!-- 0.04 -->
      <g transform="translate(196.930236 322.182437) scale(0.1 -0.1)">
       <defs>
        <path id="DejaVuSans-34" d="M 2419 4116 
L 825 1625 
L 2419 1625 
L 2419 4116 
z
M 2253 4666 
L 3047 4666 
L 3047 1625 
L 3713 1625 
L 3713 1100 
L 3047 1100 
L 3047 0 
L 2419 0 
L 2419 1100 
L 313 1100 
L 313 1709 
L 2253 4666 
z
" transform="scale(0.015625)"/>
       </defs>
       <use xlink:href="#DejaVuSans-30"/>
       <use xlink:href="#DejaVuSans-2e" x="63.623047"/>
       <use xlink:href="#DejaVuSans-30" x="95.410156"/>
       <use xlink:href="#DejaVuSans-34" x="159.033203"/>
      </g>
     </g>
    </g>
    <g id="xtick_4">
     <g id="line2d_4">
      <g>
       <use xlink:href="#ma563e6bdf1" x="275.218831" y="307.584" style="stroke: #000000; stroke-width: 0.8"/>
      </g>
     </g>
     <g id="text_4">
      <!-- 0.06 -->
      <g transform="translate(264.086018 322.182437) scale(0.1 -0.1)">
       <defs>
        <path id="DejaVuSans-36" d="M 2113 2584 
Q 1688 2584 1439 2293 
Q 1191 2003 1191 1497 
Q 1191 994 1439 701 
Q 1688 409 2113 409 
Q 2538 409 2786 701 
Q 3034 994 3034 1497 
Q 3034 2003 2786 2293 
Q 2538 2584 2113 2584 
z
M 3366 4563 
L 3366 3988 
Q 3128 4100 2886 4159 
Q 2644 4219 2406 4219 
Q 1781 4219 1451 3797 
Q 1122 3375 1075 2522 
Q 1259 2794 1537 2939 
Q 1816 3084 2150 3084 
Q 2853 3084 3261 2657 
Q 3669 2231 3669 1497 
Q 3669 778 3244 343 
Q 2819 -91 2113 -91 
Q 1303 -91 875 529 
Q 447 1150 447 2328 
Q 447 3434 972 4092 
Q 1497 4750 2381 4750 
Q 2619 4750 2861 4703 
Q 3103 4656 3366 4563 
z
" transform="scale(0.015625)"/>
       </defs>
       <use xlink:href="#DejaVuSans-30"/>
       <use xlink:href="#DejaVuSans-2e" x="63.623047"/>
       <use xlink:href="#DejaVuSans-30" x="95.410156"/>
       <use xlink:href="#DejaVuSans-36" x="159.033203"/>
      </g>
     </g>
    </g>
    <g id="xtick_5">
     <g id="line2d_5">
      <g>
       <use xlink:href="#ma563e6bdf1" x="342.374614" y="307.584" style="stroke: #000000; stroke-width: 0.8"/>
      </g>
     </g>
     <g id="text_5">
      <!-- 0.08 -->
      <g transform="translate(331.241801 322.182437) scale(0.1 -0.1)">
       <defs>
        <path id="DejaVuSans-38" d="M 2034 2216 
Q 1584 2216 1326 1975 
Q 1069 1734 1069 1313 
Q 1069 891 1326 650 
Q 1584 409 2034 409 
Q 2484 409 2743 651 
Q 3003 894 3003 1313 
Q 3003 1734 2745 1975 
Q 2488 2216 2034 2216 
z
M 1403 2484 
Q 997 2584 770 2862 
Q 544 3141 544 3541 
Q 544 4100 942 4425 
Q 1341 4750 2034 4750 
Q 2731 4750 3128 4425 
Q 3525 4100 3525 3541 
Q 3525 3141 3298 2862 
Q 3072 2584 2669 2484 
Q 3125 2378 3379 2068 
Q 3634 1759 3634 1313 
Q 3634 634 3220 271 
Q 2806 -91 2034 -91 
Q 1263 -91 848 271 
Q 434 634 434 1313 
Q 434 1759 690 2068 
Q 947 2378 1403 2484 
z
M 1172 3481 
Q 1172 3119 1398 2916 
Q 1625 2713 2034 2713 
Q 2441 2713 2670 2916 
Q 2900 3119 2900 3481 
Q 2900 3844 2670 4047 
Q 2441 4250 2034 4250 
Q 1625 4250 1398 4047 
Q 1172 3844 1172 3481 
z
" transform="scale(0.015625)"/>
       </defs>
       <use xlink:href="#DejaVuSans-30"/>
       <use xlink:href="#DejaVuSans-2e" x="63.623047"/>
       <use xlink:href="#DejaVuSans-30" x="95.410156"/>
       <use xlink:href="#DejaVuSans-38" x="159.033203"/>
      </g>
     </g>
    </g>
    <g id="xtick_6">
     <g id="line2d_6">
      <g>
       <use xlink:href="#ma563e6bdf1" x="409.530397" y="307.584" style="stroke: #000000; stroke-width: 0.8"/>
      </g>
     </g>
     <g id="text_6">
      <!-- 0.10 -->
      <g transform="translate(398.397584 322.182437) scale(0.1 -0.1)">
       <defs>
        <path id="DejaVuSans-31" d="M 794 531 
L 1825 531 
L 1825 4091 
L 703 3866 
L 703 4441 
L 1819 4666 
L 2450 4666 
L 2450 531 
L 3481 531 
L 3481 0 
L 794 0 
L 794 531 
z
" transform="scale(0.015625)"/>
       </defs>
       <use xlink:href="#DejaVuSans-30"/>
       <use xlink:href="#DejaVuSans-2e" x="63.623047"/>
       <use xlink:href="#DejaVuSans-31" x="95.410156"/>
       <use xlink:href="#DejaVuSans-30" x="159.033203"/>
      </g>
     </g>
    </g>
   </g>
   <g id="matplotlib.axis_2">
    <g id="ytick_1">
     <g id="line2d_7">
      <defs>
       <path id="m9eeab6deae" d="M 0 0 
L -3.5 0 
" style="stroke: #000000; stroke-width: 0.8"/>
      </defs>
      <g>
       <use xlink:href="#m9eeab6deae" x="57.6" y="298.680004" style="stroke: #000000; stroke-width: 0.8"/>
      </g>
     </g>
     <g id="text_7">
      <!-- −2500 -->
      <g transform="translate(16.770313 302.479223) scale(0.1 -0.1)">
       <defs>
        <path id="DejaVuSans-2212" d="M 678 2272 
L 4684 2272 
L 4684 1741 
L 678 1741 
L 678 2272 
z
" transform="scale(0.015625)"/>
        <path id="DejaVuSans-35" d="M 691 4666 
L 3169 4666 
L 3169 4134 
L 1269 4134 
L 1269 2991 
Q 1406 3038 1543 3061 
Q 1681 3084 1819 3084 
Q 2600 3084 3056 2656 
Q 3513 2228 3513 1497 
Q 3513 744 3044 326 
Q 2575 -91 1722 -91 
Q 1428 -91 1123 -41 
Q 819 9 494 109 
L 494 744 
Q 775 591 1075 516 
Q 1375 441 1709 441 
Q 2250 441 2565 725 
Q 2881 1009 2881 1497 
Q 2881 1984 2565 2268 
Q 2250 2553 1709 2553 
Q 1456 2553 1204 2497 
Q 953 2441 691 2322 
L 691 4666 
z
" transform="scale(0.015625)"/>
       </defs>
       <use xlink:href="#DejaVuSans-2212"/>
       <use xlink:href="#DejaVuSans-32" x="83.789062"/>
       <use xlink:href="#DejaVuSans-35" x="147.412109"/>
       <use xlink:href="#DejaVuSans-30" x="211.035156"/>
       <use xlink:href="#DejaVuSans-30" x="274.658203"/>
      </g>
     </g>
    </g>
    <g id="ytick_2">
     <g id="line2d_8">
      <g>
       <use xlink:href="#m9eeab6deae" x="57.6" y="267.536271" style="stroke: #000000; stroke-width: 0.8"/>
      </g>
     </g>
     <g id="text_8">
      <!-- −2000 -->
      <g transform="translate(16.770313 271.33549) scale(0.1 -0.1)">
       <use xlink:href="#DejaVuSans-2212"/>
       <use xlink:href="#DejaVuSans-32" x="83.789062"/>
       <use xlink:href="#DejaVuSans-30" x="147.412109"/>
       <use xlink:href="#DejaVuSans-30" x="211.035156"/>
       <use xlink:href="#DejaVuSans-30" x="274.658203"/>
      </g>
     </g>
    </g>
    <g id="ytick_3">
     <g id="line2d_9">
      <g>
       <use xlink:href="#m9eeab6deae" x="57.6" y="236.392538" style="stroke: #000000; stroke-width: 0.8"/>
      </g>
     </g>
     <g id="text_9">
      <!-- −1500 -->
      <g transform="translate(16.770313 240.191757) scale(0.1 -0.1)">
       <use xlink:href="#DejaVuSans-2212"/>
       <use xlink:href="#DejaVuSans-31" x="83.789062"/>
       <use xlink:href="#DejaVuSans-35" x="147.412109"/>
       <use xlink:href="#DejaVuSans-30" x="211.035156"/>
       <use xlink:href="#DejaVuSans-30" x="274.658203"/>
      </g>
     </g>
    </g>
    <g id="ytick_4">
     <g id="line2d_10">
      <g>
       <use xlink:href="#m9eeab6deae" x="57.6" y="205.248805" style="stroke: #000000; stroke-width: 0.8"/>
      </g>
     </g>
     <g id="text_10">
      <!-- −1000 -->
      <g transform="translate(16.770313 209.048024) scale(0.1 -0.1)">
       <use xlink:href="#DejaVuSans-2212"/>
       <use xlink:href="#DejaVuSans-31" x="83.789062"/>
       <use xlink:href="#DejaVuSans-30" x="147.412109"/>
       <use xlink:href="#DejaVuSans-30" x="211.035156"/>
       <use xlink:href="#DejaVuSans-30" x="274.658203"/>
      </g>
     </g>
    </g>
    <g id="ytick_5">
     <g id="line2d_11">
      <g>
       <use xlink:href="#m9eeab6deae" x="57.6" y="174.105072" style="stroke: #000000; stroke-width: 0.8"/>
      </g>
     </g>
     <g id="text_11">
      <!-- −500 -->
      <g transform="translate(23.132812 177.904291) scale(0.1 -0.1)">
       <use xlink:href="#DejaVuSans-2212"/>
       <use xlink:href="#DejaVuSans-35" x="83.789062"/>
       <use xlink:href="#DejaVuSans-30" x="147.412109"/>
       <use xlink:href="#DejaVuSans-30" x="211.035156"/>
      </g>
     </g>
    </g>
    <g id="ytick_6">
     <g id="line2d_12">
      <g>
       <use xlink:href="#m9eeab6deae" x="57.6" y="142.961339" style="stroke: #000000; stroke-width: 0.8"/>
      </g>
     </g>
     <g id="text_12">
      <!-- 0 -->
      <g transform="translate(44.2375 146.760558) scale(0.1 -0.1)">
       <use xlink:href="#DejaVuSans-30"/>
      </g>
     </g>
    </g>
    <g id="ytick_7">
     <g id="line2d_13">
      <g>
       <use xlink:href="#m9eeab6deae" x="57.6" y="111.817606" style="stroke: #000000; stroke-width: 0.8"/>
      </g>
     </g>
     <g id="text_13">
      <!-- 500 -->
      <g transform="translate(31.5125 115.616825) scale(0.1 -0.1)">
       <use xlink:href="#DejaVuSans-35"/>
       <use xlink:href="#DejaVuSans-30" x="63.623047"/>
       <use xlink:href="#DejaVuSans-30" x="127.246094"/>
      </g>
     </g>
    </g>
    <g id="ytick_8">
     <g id="line2d_14">
      <g>
       <use xlink:href="#m9eeab6deae" x="57.6" y="80.673873" style="stroke: #000000; stroke-width: 0.8"/>
      </g>
     </g>
     <g id="text_14">
      <!-- 1000 -->
      <g transform="translate(25.15 84.473092) scale(0.1 -0.1)">
       <use xlink:href="#DejaVuSans-31"/>
       <use xlink:href="#DejaVuSans-30" x="63.623047"/>
       <use xlink:href="#DejaVuSans-30" x="127.246094"/>
       <use xlink:href="#DejaVuSans-30" x="190.869141"/>
      </g>
     </g>
    </g>
    <g id="ytick_9">
     <g id="line2d_15">
      <g>
       <use xlink:href="#m9eeab6deae" x="57.6" y="49.530141" style="stroke: #000000; stroke-width: 0.8"/>
      </g>
     </g>
     <g id="text_15">
      <!-- 1500 -->
      <g transform="translate(25.15 53.329359) scale(0.1 -0.1)">
       <use xlink:href="#DejaVuSans-31"/>
       <use xlink:href="#DejaVuSans-35" x="63.623047"/>
       <use xlink:href="#DejaVuSans-30" x="127.246094"/>
       <use xlink:href="#DejaVuSans-30" x="190.869141"/>
      </g>
     </g>
    </g>
   </g>
   <g id="line2d_16">
    <path d="M 73.832727 225.646177 
L 73.995217 226.355385 
L 74.157707 229.793802 
L 74.320197 216.136717 
L 74.482686 231.432984 
L 74.807666 219.304697 
L 74.970156 234.600964 
L 75.132645 221.741393 
L 75.295135 233.646155 
L 75.457625 213.001851 
L 75.620115 237.109409 
L 75.782604 229.137026 
L 76.270074 221.995273 
L 76.432563 224.16429 
L 76.595053 224.67205 
L 76.920033 219.194314 
L 77.082523 228.262244 
L 77.245012 212.262288 
L 77.407502 220.182239 
L 77.732482 203.873211 
L 77.894971 213.470977 
L 78.057461 205.161928 
L 78.219951 211.067396 
L 78.382441 194.211975 
L 78.54493 205.912529 
L 78.70742 190.754241 
L 78.86991 197.277851 
L 79.0324 187.020549 
L 79.194889 189.99812 
L 79.357379 181.18407 
L 79.519869 180.720463 
L 79.682359 181.357923 
L 79.844848 176.103711 
L 80.007338 176.360351 
L 80.332318 167.132367 
L 80.494808 170.21756 
L 80.657297 164.772939 
L 80.819787 168.636329 
L 81.144767 157.335912 
L 81.307256 160.037526 
L 81.794726 155.437331 
L 81.957215 156.116184 
L 82.119705 151.201399 
L 82.282195 154.247959 
L 82.444685 148.359048 
L 82.607174 154.341784 
L 82.769664 148.902682 
L 82.932154 148.444594 
L 83.094644 150.56118 
L 83.257133 146.764019 
L 83.419623 148.637764 
L 83.582113 144.3494 
L 83.744603 147.625004 
L 84.069582 142.483935 
L 84.232072 146.733664 
L 84.394562 141.827158 
L 84.557052 142.746093 
L 84.719541 140.86407 
L 84.882031 140.877868 
L 85.044521 142.169344 
L 85.207011 138.675735 
L 85.3695 140.469452 
L 85.53199 136.882018 
L 85.69448 139.843031 
L 85.85697 135.758875 
L 86.019459 139.495326 
L 86.181949 134.975159 
L 86.344439 137.088986 
L 86.506929 134.125213 
L 86.669419 134.103137 
L 86.831908 135.590542 
L 86.994398 130.159719 
L 87.156888 133.244912 
L 87.319378 129.304254 
L 87.481867 130.325292 
L 87.644357 129.712669 
L 87.806847 129.83133 
L 87.969337 125.863076 
L 88.131826 126.279771 
L 88.781785 121.90862 
L 89.106765 117.3443 
L 89.269255 117.846541 
L 89.431744 115.393288 
L 89.594234 110.68547 
L 89.756724 111.932794 
L 89.919214 106.532326 
L 90.081704 107.062162 
L 90.569173 96.774505 
L 90.731663 99.970081 
L 91.056642 89.119472 
L 91.219132 90.253653 
L 91.381622 83.901135 
L 91.544111 83.93701 
L 92.031581 72.931866 
L 92.19407 72.631073 
L 92.35656 77.526541 
L 92.51905 66.43861 
L 92.68154 66.971206 
L 93.006519 63.687324 
L 93.169009 63.943963 
L 93.331499 59.989507 
L 93.493989 60.47519 
L 93.656478 58.526938 
L 93.818968 58.819452 
L 93.981458 58.554533 
L 94.143948 61.394126 
L 94.306437 56.286171 
L 94.468927 55.220979 
L 94.631417 58.623523 
L 94.956396 60.282021 
L 95.118886 53.568 
L 95.281376 61.17336 
L 95.443866 58.711829 
L 95.606355 59.180955 
L 95.768845 60.566256 
L 95.931335 58.598686 
L 96.256314 62.589017 
L 96.581294 59.175435 
L 96.743784 64.360658 
L 96.906274 60.337212 
L 97.068763 62.795984 
L 97.231253 61.841175 
L 97.393743 66.162653 
L 97.556233 66.772517 
L 97.718722 64.606259 
L 97.881212 66.215085 
L 98.043702 62.754591 
L 98.368681 68.762163 
L 98.531171 62.881531 
L 98.693661 69.774924 
L 98.856151 69.821836 
L 99.01864 69.145743 
L 99.18113 67.672135 
L 99.34362 70.017765 
L 99.50611 70.078476 
L 99.6686 67.274758 
L 99.831089 75.396157 
L 99.993579 73.894954 
L 100.156069 71.19334 
L 100.318559 71.770089 
L 100.643538 76.911158 
L 100.806028 72.429625 
L 100.968518 76.922196 
L 101.293497 73.762495 
L 101.455987 79.278864 
L 101.618477 79.803182 
L 101.780966 77.576213 
L 101.943456 77.283699 
L 102.105946 80.854576 
L 102.268436 74.833206 
L 102.430925 83.7466 
L 102.593415 82.024631 
L 102.755905 82.786271 
L 102.918395 80.868374 
L 103.080885 81.177445 
L 103.243374 81.2078 
L 103.405864 85.744525 
L 103.568354 84.157775 
L 103.730844 84.491682 
L 103.893333 87.615509 
L 104.055823 86.583432 
L 104.218313 84.789715 
L 104.543292 89.301603 
L 104.705782 86.715891 
L 104.868272 87.254006 
L 105.030762 87.2954 
L 105.193251 90.675867 
L 105.518231 88.24745 
L 105.680721 90.554446 
L 106.0057 88.5648 
L 106.16819 92.414392 
L 106.33068 87.957695 
L 106.49317 93.302972 
L 106.655659 89.95562 
L 106.980639 94.77382 
L 107.143129 89.185702 
L 107.468108 95.582373 
L 107.630598 91.787971 
L 107.793088 94.224667 
L 107.955577 92.212944 
L 108.280557 96.55098 
L 108.443047 94.045295 
L 108.605536 96.832456 
L 108.768026 95.993548 
L 108.930516 94.417836 
L 109.093006 97.072538 
L 109.255495 95.576854 
L 109.417985 98.019068 
L 109.580475 95.91904 
L 109.742965 98.929725 
L 109.905455 98.496473 
L 110.067944 95.742427 
L 110.230434 101.327786 
L 110.392924 96.9318 
L 110.555414 100.108059 
L 110.717903 99.506474 
L 111.042883 100.817267 
L 111.205373 98.932484 
L 111.367862 99.567184 
L 111.530352 102.519918 
L 111.692842 101.258797 
L 111.855332 103.58787 
L 112.017821 101.921093 
L 112.667781 104.448854 
L 112.83027 102.3847 
L 113.15525 107.296725 
L 113.31774 105.342953 
L 113.480229 106.681342 
L 113.642719 104.007324 
L 113.805209 107.738255 
L 113.967699 106.482653 
L 114.130188 108.651671 
L 114.292678 104.810357 
L 114.455168 110.257738 
L 114.617658 109.722382 
L 114.780147 111.107684 
L 114.942637 107.357435 
L 115.105127 111.046973 
L 115.267617 110.7517 
L 115.430106 110.903476 
L 115.592596 113.152521 
L 115.755086 109.112519 
L 115.917576 113.671319 
L 116.080066 111.877602 
L 116.242555 112.642002 
L 116.405045 112.172876 
L 116.567535 114.4302 
L 116.730025 114.896566 
L 116.892514 113.536101 
L 117.055004 115.329818 
L 117.379984 114.23979 
L 117.542473 115.829299 
L 117.704963 113.828615 
L 117.867453 117.747196 
L 118.029943 115.594736 
L 118.192432 118.688208 
L 118.354922 114.926921 
L 118.517412 117.181486 
L 118.679902 117.137333 
L 118.842391 118.588864 
L 119.004881 118.10594 
L 119.167371 118.718563 
L 119.329861 120.83239 
L 119.492351 119.195968 
L 119.65484 119.645777 
L 119.97982 124.532966 
L 120.14231 121.105587 
L 120.467289 124.452939 
L 120.629779 125.639552 
L 120.792269 124.858595 
L 120.954758 128.443269 
L 121.117248 127.540892 
L 121.279738 125.940344 
L 121.442228 130.209391 
L 121.604717 130.165238 
L 121.767207 129.605046 
L 121.929697 132.038982 
L 122.092187 132.781305 
L 122.254676 132.270786 
L 122.417166 132.933081 
L 122.579656 135.422208 
L 122.742146 134.180404 
L 123.067125 137.130379 
L 123.229615 135.204203 
L 123.392105 139.47049 
L 123.554595 137.000679 
L 123.717084 141.948579 
L 123.879574 137.828549 
L 124.042064 141.932022 
L 124.204554 139.865108 
L 124.367043 144.490138 
L 124.692023 141.904426 
L 124.854513 146.689511 
L 125.017002 144.244537 
L 125.179492 144.865439 
L 125.341982 146.752981 
L 125.504472 147.321452 
L 125.666962 149.123447 
L 125.829451 147.001342 
L 125.991941 149.885087 
L 126.154431 148.59913 
L 126.316921 154.700528 
L 126.47941 149.620169 
L 126.6419 152.641892 
L 126.96688 151.648449 
L 127.129369 154.970965 
L 127.291859 154.888178 
L 127.454349 159.179301 
L 127.616839 152.032028 
L 127.779328 158.919902 
L 127.941818 157.22277 
L 128.104308 159.107552 
L 128.266798 157.611868 
L 128.429287 158.641186 
L 128.591777 163.034413 
L 128.754267 158.10583 
L 129.079247 161.188264 
L 129.566716 164.361764 
L 129.891695 163.034413 
L 130.054185 168.034744 
L 130.216675 160.614275 
L 130.379165 166.036819 
L 130.541654 165.827092 
L 130.704144 168.915045 
L 130.866634 161.938866 
L 131.029124 170.018871 
L 131.191613 168.581138 
L 131.354103 165.410398 
L 131.516593 172.002998 
L 131.679083 165.319333 
L 131.841572 173.280677 
L 132.004062 164.535616 
L 132.166552 171.188927 
L 132.329042 171.299309 
L 132.491532 171.564227 
L 132.654021 169.682204 
L 132.979001 172.709447 
L 133.141491 172.830868 
L 133.30398 170.47144 
L 133.46647 176.823958 
L 133.62896 170.247915 
L 133.79145 175.217891 
L 133.953939 172.204447 
L 134.116429 176.583876 
L 134.278919 175.507645 
L 134.441409 178.510052 
L 134.766388 172.000239 
L 134.928878 179.213741 
L 135.091368 174.442453 
L 135.253857 179.313085 
L 135.416347 177.422783 
L 135.578837 181.962267 
L 135.741327 174.017481 
L 135.903817 180.952267 
L 136.228796 179.08956 
L 136.391286 182.412076 
L 136.716265 178.264451 
L 136.878755 186.532106 
L 137.041245 179.78773 
L 137.203735 184.865329 
L 137.366224 179.715982 
L 137.691204 186.832899 
L 137.853694 184.793581 
L 138.016183 181.230983 
L 138.178673 188.182326 
L 138.341163 179.635954 
L 138.503653 186.722516 
L 138.666143 187.053664 
L 138.828632 185.552461 
L 138.991122 187.773911 
L 139.153612 186.203718 
L 139.316102 187.892572 
L 139.478591 187.01503 
L 139.641081 184.329974 
L 139.803571 189.460005 
L 140.12855 187.991916 
L 140.29104 191.692493 
L 140.45353 188.270632 
L 140.61602 193.477931 
L 140.940999 189.208884 
L 141.103489 188.317545 
L 141.265979 193.626947 
L 141.428468 190.257519 
L 141.590958 191.485525 
L 141.753448 193.729051 
L 141.915938 189.843584 
L 142.240917 194.841156 
L 142.403407 189.597983 
L 142.565897 196.367195 
L 142.728387 192.616947 
L 142.890876 195.986375 
L 143.053366 193.044679 
L 143.215856 194.534844 
L 143.378346 199.750421 
L 143.540835 193.265444 
L 143.865815 199.358563 
L 144.028305 193.428259 
L 144.190794 199.068809 
L 144.353284 194.112631 
L 144.515774 198.17471 
L 144.678264 196.405829 
L 144.840753 201.044657 
L 145.003243 197.570365 
L 145.165733 199.342006 
L 145.328223 198.732142 
L 145.490713 202.6728 
L 145.653202 194.612112 
L 145.815692 204.565862 
L 145.978182 199.662115 
L 146.140672 198.522415 
L 146.303161 203.522746 
L 146.465651 202.076735 
L 146.628141 204.872174 
L 146.790631 200.738346 
L 146.95312 203.663484 
L 147.11561 202.843894 
L 147.2781 204.783867 
L 147.44059 203.630369 
L 147.603079 204.690042 
L 147.765569 204.049823 
L 148.090549 208.561712 
L 148.253038 202.639686 
L 148.415528 212.334037 
L 148.578018 202.67832 
L 148.740508 211.459255 
L 148.902998 212.974256 
L 149.065487 203.887009 
L 149.227977 210.849391 
L 149.390467 204.392009 
L 149.552957 215.824886 
L 149.877936 209.028078 
L 150.040426 221.639289 
L 150.202916 211.186058 
L 150.365405 212.002889 
L 150.527895 203.851135 
L 150.690385 222.881093 
L 150.852875 211.10603 
L 151.015364 207.896656 
L 151.177854 220.356091 
L 151.340344 221.592376 
L 151.502834 214.265732 
L 151.665324 220.888687 
L 151.827813 213.691742 
L 151.990303 213.181223 
L 152.152793 221.310901 
L 152.315283 219.975271 
L 152.477772 223.231558 
L 152.802752 215.562727 
L 152.965242 230.743093 
L 153.127731 216.914914 
L 153.290221 221.048742 
L 153.452711 216.768657 
L 153.615201 229.8076 
L 153.77769 220.852813 
L 153.94018 222.988716 
L 154.10267 222.511311 
L 154.26516 228.778283 
L 154.427649 220.209834 
L 154.590139 222.657568 
L 154.752629 164.974387 
L 154.915119 295.488 
L 155.077609 221.468196 
L 155.240098 233.29569 
L 155.402588 227.406779 
L 155.565078 227.46473 
L 155.727568 217.582729 
L 155.890057 231.250853 
L 156.052547 232.310525 
L 156.215037 222.958361 
L 156.377527 220.306419 
L 156.540016 228.121506 
L 156.702506 221.978715 
L 156.864996 226.727926 
L 157.027486 216.467864 
L 157.189975 229.150824 
L 157.352465 213.711059 
L 157.514955 218.794178 
L 157.677445 213.142589 
L 157.839934 213.523409 
L 158.002424 210.545839 
L 158.164914 212.896988 
L 158.327404 202.504467 
L 158.489894 207.215044 
L 158.652383 197.912551 
L 158.814873 200.340968 
L 158.977363 191.684214 
L 159.139853 194.852194 
L 159.302342 182.401038 
L 159.464832 192.194733 
L 159.627322 189.99812 
L 159.789812 169.891931 
L 159.952301 187.050905 
L 160.114791 174.701853 
L 160.60226 169.671166 
L 160.76475 170.573544 
L 160.92724 163.078566 
L 161.08973 168.307941 
L 161.252219 160.531488 
L 161.414709 158.773645 
L 161.577199 160.997854 
L 161.902179 154.885418 
L 162.064668 154.995801 
L 162.227158 156.957851 
L 162.389648 150.158284 
L 162.552138 155.660856 
L 162.714627 148.323173 
L 162.877117 149.371808 
L 163.039607 154.510118 
L 163.202097 147.114484 
L 163.364586 147.144839 
L 163.527076 149.498748 
L 163.852056 144.92063 
L 164.014545 147.779539 
L 164.177035 142.591558 
L 164.502015 145.204865 
L 164.989484 138.8965 
L 165.151974 142.922705 
L 165.314464 138.617784 
L 165.476953 141.965136 
L 165.801933 137.811992 
L 165.964423 139.269042 
L 166.126912 136.592264 
L 166.289402 137.191089 
L 166.451892 136.043111 
L 166.614382 136.084504 
L 166.776871 135.645733 
L 166.939361 132.734392 
L 167.101851 133.482234 
L 167.264341 131.379446 
L 167.42683 134.232836 
L 167.58932 129.031057 
L 167.75181 131.1642 
L 167.9143 127.982422 
L 168.07679 129.491904 
L 168.401769 124.499851 
L 168.564259 125.529169 
L 168.726749 121.767882 
L 168.889238 122.824796 
L 169.214218 118.955886 
L 169.376708 118.508836 
L 169.539197 117.680967 
L 169.701687 110.724104 
L 169.864177 113.301538 
L 170.026667 110.577847 
L 170.189156 105.155303 
L 170.351646 107.840359 
L 170.676626 100.370218 
L 170.839115 98.438522 
L 171.164095 92.466824 
L 171.326585 92.880759 
L 171.651564 83.550671 
L 171.814054 82.60138 
L 171.976544 80.951161 
L 172.139034 75.241621 
L 172.301523 78.257825 
L 172.464013 66.904976 
L 172.626503 74.286812 
L 172.788993 66.987763 
L 172.951482 69.888066 
L 173.113972 63.571422 
L 173.276462 64.120575 
L 173.438952 60.273742 
L 173.601441 64.91533 
L 173.763931 57.050571 
L 173.926421 64.15645 
L 174.088911 57.610762 
L 174.41389 59.959152 
L 174.57638 55.030569 
L 174.73887 59.763223 
L 175.063849 56.901554 
L 175.226339 59.97295 
L 175.388829 56.705625 
L 175.551319 59.324452 
L 175.713808 59.523141 
L 175.876298 59.97295 
L 176.038788 58.76702 
L 176.201278 59.826693 
L 176.363767 57.227183 
L 176.526257 63.833581 
L 176.688747 61.027103 
L 176.851237 63.226476 
L 177.013726 63.571422 
L 177.176216 60.900163 
L 177.501196 64.702844 
L 177.663686 61.372049 
L 177.826175 68.017081 
L 177.988665 61.766667 
L 178.151155 66.521397 
L 178.313645 64.926368 
L 178.476134 66.841506 
L 178.638624 67.318911 
L 178.801114 66.827708 
L 178.963604 64.247515 
L 179.126093 74.04673 
L 179.288583 67.180933 
L 179.451073 70.572438 
L 179.776052 69.620388 
L 180.101032 71.604515 
L 180.263522 67.536917 
L 180.426011 78.710394 
L 180.588501 73.47274 
L 180.750991 72.631073 
L 180.913481 75.967387 
L 181.075971 71.938422 
L 181.40095 79.775586 
L 181.56344 71.198859 
L 181.72593 81.9722 
L 181.888419 75.619682 
L 182.050909 80.476516 
L 182.213399 77.639683 
L 182.375889 77.225748 
L 182.700868 84.999442 
L 182.863358 75.065009 
L 183.025848 85.366464 
L 183.188337 82.844222 
L 183.350827 82.720042 
L 183.513317 81.489276 
L 183.675807 86.255044 
L 183.838296 81.351298 
L 184.000786 86.72693 
L 184.163276 87.656903 
L 184.325766 84.491682 
L 184.488256 84.770398 
L 184.650745 88.079116 
L 184.813235 88.18398 
L 184.975725 86.773842 
L 185.138215 88.413024 
L 185.300704 88.904226 
L 185.463194 85.366464 
L 185.625684 93.233983 
L 185.788174 86.47029 
L 185.950663 91.716223 
L 186.113153 88.068078 
L 186.438133 91.702425 
L 186.600622 88.959417 
L 186.763112 93.418874 
L 186.925602 91.760376 
L 187.088092 93.043573 
L 187.250581 90.046686 
L 187.575561 91.854201 
L 187.738051 96.062537 
L 187.900541 92.370239 
L 188.06303 92.966305 
L 188.22552 97.417483 
L 188.38801 91.992179 
L 188.712989 96.99527 
L 188.875479 94.067372 
L 189.037969 95.949395 
L 189.362948 94.870405 
L 189.525438 99.934206 
L 189.687928 95.099449 
L 189.850418 97.000789 
L 190.012907 96.984232 
L 190.175397 97.227073 
L 190.337887 100.221201 
L 190.500377 100.687567 
L 190.662867 97.536145 
L 190.825356 99.161528 
L 190.987846 99.136692 
L 191.150336 101.614781 
L 191.312826 99.354698 
L 191.475315 102.415055 
L 191.800295 99.194643 
L 191.962785 100.745518 
L 192.125274 103.988007 
L 192.287764 100.361939 
L 192.450254 106.466096 
L 192.612744 101.010437 
L 192.775233 105.403664 
L 193.100213 102.900738 
L 193.587682 107.037326 
L 193.750172 105.147024 
L 194.075152 107.409867 
L 194.237641 106.195659 
L 194.400131 108.383993 
L 194.562621 107.810004 
L 194.725111 108.450223 
L 194.8876 107.310523 
L 195.05009 112.379843 
L 195.21258 107.925906 
L 195.37507 112.244624 
L 195.700049 109.716863 
L 195.862539 112.142521 
L 196.025029 111.695471 
L 196.187518 113.251866 
L 196.350008 111.64028 
L 196.512498 113.825855 
L 196.674988 112.203231 
L 196.837477 114.286702 
L 197.162457 113.767904 
L 197.324947 114.248068 
L 197.487437 114.082495 
L 197.649926 116.403288 
L 197.812416 113.98591 
L 197.974906 117.479519 
L 198.137396 114.979353 
L 198.299885 116.637851 
L 198.462375 115.57266 
L 198.624865 117.711322 
L 198.787355 117.967962 
L 198.949844 117.09318 
L 199.112334 118.649574 
L 199.274824 118.072825 
L 199.437314 118.566787 
L 199.599803 121.348428 
L 199.762293 117.369136 
L 199.924783 122.41362 
L 200.249762 121.734768 
L 200.412252 124.397747 
L 200.574742 123.166982 
L 200.737232 125.984497 
L 200.899722 122.899304 
L 201.062211 126.842722 
L 201.224701 126.152831 
L 201.387191 128.625401 
L 201.549681 127.698187 
L 201.71217 129.886522 
L 201.87466 129.743024 
L 202.03715 131.464993 
L 202.19964 128.904117 
L 202.362129 131.153162 
L 202.524619 135.019312 
L 202.687109 132.524666 
L 203.012088 136.018274 
L 203.174578 135.929968 
L 203.337068 135.080022 
L 203.499558 138.700571 
L 203.662048 138.77508 
L 203.824537 136.694368 
L 203.987027 139.746446 
L 204.149517 138.352866 
L 204.312007 144.090001 
L 204.636986 140.933059 
L 204.799476 144.628116 
L 204.961966 142.348716 
L 205.124455 155.992004 
L 205.286945 135.612618 
L 205.449435 144.142433 
L 205.611925 145.789893 
L 205.774414 149.2973 
L 205.936904 149.289021 
L 206.099394 145.994101 
L 206.261884 150.859213 
L 206.424373 147.680195 
L 206.586863 153.188286 
L 206.749353 150.061699 
L 206.911843 155.169654 
L 207.074333 152.945444 
L 207.236822 154.741921 
L 207.399312 153.42009 
L 207.561802 154.256238 
L 207.724292 157.432497 
L 207.886781 155.042714 
L 208.049271 157.678098 
L 208.211761 156.367305 
L 208.374251 157.785721 
L 208.53674 157.247606 
L 208.86172 163.602883 
L 209.02421 157.09307 
L 209.186699 160.310723 
L 209.349189 161.179985 
L 209.511679 164.806054 
L 209.674169 160.45422 
L 209.999148 167.916083 
L 210.161638 162.010614 
L 210.324128 164.70119 
L 210.486618 163.517337 
L 210.649107 164.439031 
L 210.811597 164.712228 
L 210.974087 169.96368 
L 211.299066 165.805016 
L 211.461556 168.868133 
L 211.624046 167.126847 
L 211.786536 167.576656 
L 211.949025 169.45592 
L 212.111515 169.952642 
L 212.274005 166.925399 
L 212.436495 171.99196 
L 212.598984 170.09062 
L 212.761474 174.376224 
L 212.923964 173.443491 
L 213.086454 165.553896 
L 213.248943 174.599749 
L 213.411433 172.841906 
L 213.573923 174.20789 
L 213.736413 173.614584 
L 213.898903 170.719801 
L 214.061392 174.459011 
L 214.223882 175.435897 
L 214.386372 177.389669 
L 214.548862 169.384171 
L 214.711351 178.52109 
L 214.873841 174.59147 
L 215.198821 179.28549 
L 215.36131 175.587673 
L 215.5238 174.950213 
L 215.68629 178.573522 
L 215.84878 178.344478 
L 216.011269 179.517293 
L 216.173759 182.202349 
L 216.336249 176.672182 
L 216.498739 181.962267 
L 216.823718 179.172347 
L 216.986208 183.408279 
L 217.148698 182.428634 
L 217.311188 178.990216 
L 217.473677 186.358254 
L 217.636167 181.457267 
L 217.798657 183.678717 
L 217.961147 189.241999 
L 218.123636 179.136473 
L 218.448616 184.666641 
L 218.611106 183.322733 
L 218.773595 187.933965 
L 218.936085 184.183717 
L 219.261065 189.769076 
L 219.423554 183.231667 
L 219.586044 187.577982 
L 219.748534 188.066424 
L 219.911024 190.387218 
L 220.073514 186.071259 
L 220.236003 187.677326 
L 220.398493 192.136782 
L 220.560983 186.791506 
L 220.885962 191.427574 
L 221.048452 191.794596 
L 221.210942 185.949838 
L 221.373432 196.14919 
L 221.698411 187.553145 
L 221.860901 194.3058 
L 222.023391 188.378255 
L 222.18588 194.841156 
L 222.34837 191.598667 
L 222.51086 194.595555 
L 222.67335 191.670416 
L 222.835839 195.544845 
L 222.998329 194.832877 
L 223.160819 195.274408 
L 223.323309 187.732517 
L 223.485799 197.379955 
L 223.648288 196.02225 
L 223.810778 197.117797 
L 223.973268 196.309244 
L 224.135758 197.989819 
L 224.298247 192.335471 
L 224.460737 198.536213 
L 224.623227 195.19714 
L 224.785717 197.250256 
L 224.948206 203.266107 
L 225.273186 194.275445 
L 225.435676 205.385453 
L 225.598165 194.719735 
L 225.760655 202.093292 
L 225.923145 197.744218 
L 226.248124 203.503429 
L 226.410614 196.676266 
L 226.573104 202.957036 
L 226.735594 203.279905 
L 226.898084 202.291981 
L 227.223063 206.566546 
L 227.385553 199.510339 
L 227.548043 208.249881 
L 227.710532 196.872195 
L 227.873022 208.534116 
L 228.035512 210.802478 
L 228.198002 200.672116 
L 228.360491 206.561027 
L 228.522981 202.99291 
L 228.685471 215.438547 
L 228.847961 205.962202 
L 229.01045 205.357857 
L 229.17294 205.992557 
L 229.33543 215.620678 
L 229.49792 205.520671 
L 229.66041 212.419583 
L 229.822899 208.354744 
L 230.147879 218.565134 
L 230.310369 205.65313 
L 230.472858 207.61794 
L 230.635348 221.802103 
L 230.797838 208.652777 
L 230.960328 219.655162 
L 231.122817 202.062937 
L 231.285307 227.583391 
L 231.447797 213.161906 
L 231.610287 213.280567 
L 231.772776 217.419914 
L 231.935266 215.554449 
L 232.260246 222.342978 
L 232.422735 217.800734 
L 232.585225 208.768679 
L 232.747715 223.325383 
L 232.910205 224.426449 
L 233.072695 216.782455 
L 233.235184 220.149124 
L 233.397674 229.023884 
L 233.560164 224.059427 
L 233.722654 213.153627 
L 233.885143 227.597189 
L 234.047633 226.095986 
L 234.210123 221.255709 
L 234.535102 226.057352 
L 234.697592 220.899725 
L 234.860082 229.470933 
L 235.022572 221.084616 
L 235.347551 232.78793 
L 235.510041 222.006311 
L 235.672531 226.429893 
L 235.83502 226.730686 
L 235.99751 219.955954 
L 236.16 235.856566 
L 236.32249 227.094948 
L 236.48498 225.607543 
L 236.647469 220.074616 
L 236.809959 230.469896 
L 237.134939 216.716225 
L 237.297428 230.06148 
L 237.459918 215.002536 
L 237.784898 219.991829 
L 237.947387 213.001851 
L 238.272367 209.320592 
L 238.434857 209.800756 
L 238.597346 202.841134 
L 238.759836 205.037747 
L 238.922326 194.325117 
L 239.084816 205.799387 
L 239.247305 193.690417 
L 239.409795 189.884978 
L 239.572285 189.269595 
L 239.734775 185.359291 
L 239.897265 186.010549 
L 240.059754 178.449341 
L 240.222244 176.548001 
L 240.384734 177.966418 
L 240.547224 172.861223 
L 240.709713 172.019556 
L 240.872203 167.902285 
L 241.034693 167.215154 
L 241.197183 164.714988 
L 241.359672 165.931956 
L 241.522162 159.728454 
L 241.684652 161.210341 
L 241.847142 158.872989 
L 242.009631 160.065121 
L 242.334611 152.881974 
L 242.497101 151.968558 
L 242.65959 154.562549 
L 242.98457 153.762276 
L 243.14706 148.066534 
L 243.30955 148.897163 
L 243.472039 149.098611 
L 243.634529 147.796097 
L 243.797019 147.674676 
L 243.959509 146.31973 
L 244.121998 148.60189 
L 244.284488 143.173826 
L 244.446978 145.483581 
L 244.609468 144.550849 
L 244.934447 141.002048 
L 245.096937 143.816804 
L 245.584406 139.097949 
L 245.746896 141.578797 
L 245.909386 138.821992 
L 246.071876 139.583632 
L 246.396855 136.120378 
L 246.559345 137.958248 
L 246.721835 135.024831 
L 246.884324 136.125897 
L 247.209304 133.079338 
L 247.534283 132.883409 
L 247.859263 130.336331 
L 248.184242 128.032094 
L 248.346732 130.057615 
L 248.509222 125.752694 
L 248.671712 126.150071 
L 248.834201 123.442938 
L 249.159181 122.377746 
L 249.321671 119.75616 
L 249.484161 119.670613 
L 250.13412 110.922793 
L 250.296609 110.897957 
L 250.459099 103.477487 
L 250.621589 109.896235 
L 250.784079 100.232239 
L 251.271548 95.604449 
L 251.759017 86.393022 
L 251.921507 84.789715 
L 252.083997 81.108456 
L 252.246486 81.326461 
L 252.571466 73.207822 
L 252.733956 73.944626 
L 253.058935 65.883937 
L 253.221425 73.671429 
L 253.383915 57.933631 
L 253.546405 68.041917 
L 253.708894 60.2903 
L 253.871384 59.605928 
L 254.033874 64.388253 
L 254.196364 63.596258 
L 254.358853 57.072647 
L 254.521343 59.114725 
L 254.683833 54.776689 
L 254.846323 62.713197 
L 255.008812 53.581798 
L 255.171302 59.730108 
L 255.496282 57.792894 
L 255.658771 54.600077 
L 255.821261 65.872899 
L 255.983751 55.706663 
L 256.146241 60.179917 
L 256.308731 57.94467 
L 256.47122 61.614891 
L 256.63371 58.380681 
L 256.95869 64.926368 
L 257.121179 63.897051 
L 257.283669 58.093686 
L 257.446159 64.923609 
L 257.608649 61.769426 
L 257.771138 63.005711 
L 257.933628 67.561753 
L 258.096118 62.31858 
L 258.258608 61.995711 
L 258.421097 70.823558 
L 258.583587 63.924646 
L 259.071057 69.109868 
L 259.233546 67.26096 
L 259.396036 70.282683 
L 259.558526 65.839784 
L 259.721016 73.274052 
L 259.883505 65.646615 
L 260.045995 71.869433 
L 260.208485 70.889788 
L 260.370975 71.938422 
L 260.533464 70.522766 
L 260.695954 74.67591 
L 260.858444 69.48241 
L 261.020934 81.387172 
L 261.183423 70.710416 
L 261.345913 75.18643 
L 261.508403 75.368561 
L 261.670893 77.53206 
L 261.833382 76.108125 
L 261.995872 76.097086 
L 262.320852 80.073619 
L 262.483342 76.295775 
L 262.645831 82.165369 
L 262.808321 78.186077 
L 263.133301 85.396819 
L 263.29579 78.859411 
L 263.45828 80.137089 
L 263.62077 85.863186 
L 263.78326 81.660369 
L 263.945749 83.087064 
L 264.108239 87.071875 
L 264.270729 87.494089 
L 264.433219 82.962883 
L 264.595708 88.490291 
L 264.758198 82.333703 
L 264.920688 89.947342 
L 265.083178 85.162256 
L 265.408157 89.947342 
L 265.733137 87.077394 
L 265.895627 91.012534 
L 266.058116 89.469937 
L 266.220606 90.623435 
L 266.383096 89.119472 
L 266.545586 89.290565 
L 266.708075 91.597561 
L 266.870565 88.046002 
L 267.033055 94.588929 
L 267.195545 90.631714 
L 267.520524 93.69483 
L 267.683014 90.253653 
L 267.845504 93.093245 
L 268.007993 93.31953 
L 268.170483 94.591689 
L 268.332973 93.625841 
L 268.495463 94.875924 
L 268.657952 90.220538 
L 268.820442 97.511308 
L 268.982932 95.433356 
L 269.307912 94.304694 
L 269.470401 99.33814 
L 269.632891 95.262263 
L 269.795381 96.686199 
L 269.957871 96.4268 
L 270.12036 98.609615 
L 270.28285 96.766226 
L 270.44534 97.676882 
L 270.60783 99.837622 
L 270.770319 97.155325 
L 270.932809 100.538551 
L 271.095299 100.016993 
L 271.257789 97.011827 
L 271.420278 104.785521 
L 271.582768 96.048739 
L 271.907748 102.404017 
L 272.070238 101.071147 
L 272.232727 102.541995 
L 272.395217 100.659972 
L 272.557707 102.114262 
L 272.720197 105.525084 
L 272.882686 100.974562 
L 273.207666 105.784483 
L 273.370156 102.862104 
L 273.532645 106.833118 
L 273.695135 104.429537 
L 274.020115 105.99973 
L 274.182604 106.689621 
L 274.345094 108.759294 
L 274.507584 106.924184 
L 274.670074 107.732736 
L 274.832563 107.252572 
L 274.995053 111.311892 
L 275.157543 106.94902 
L 275.482523 111.38364 
L 275.645012 109.807929 
L 275.807502 111.965908 
L 275.969992 109.42159 
L 276.132482 113.262904 
L 276.457461 110.036973 
L 276.619951 114.250828 
L 276.782441 112.953833 
L 277.10742 113.685117 
L 277.26991 112.252903 
L 277.4324 115.351894 
L 277.757379 114.499189 
L 277.919869 116.916568 
L 278.244848 114.341894 
L 278.569828 117.289109 
L 278.732318 116.52195 
L 278.894808 116.541267 
L 279.057297 118.246678 
L 279.219787 118.412252 
L 279.382277 117.336021 
L 279.544767 120.250122 
L 279.707256 117.609218 
L 279.869746 122.256325 
L 280.032236 118.42329 
L 280.357215 122.940697 
L 280.519705 120.796516 
L 281.007174 125.727858 
L 281.169664 124.880671 
L 281.332154 127.852722 
L 281.494644 124.152146 
L 281.657133 128.652996 
L 281.819623 129.425674 
L 281.982113 128.509499 
L 282.144603 131.909283 
L 282.307093 130.225948 
L 282.469582 130.507424 
L 282.794562 132.472234 
L 282.957052 132.532944 
L 283.119541 136.559149 
L 283.282031 134.544667 
L 283.444521 134.238355 
L 283.607011 139.997567 
L 283.7695 136.835106 
L 283.93199 139.843031 
L 284.09448 136.388056 
L 284.25697 140.764726 
L 284.419459 139.269042 
L 284.581949 140.897185 
L 284.744439 144.167269 
L 284.906929 139.558796 
L 285.069419 144.084482 
L 285.231908 143.016531 
L 285.394398 145.638117 
L 285.556888 144.873718 
L 285.719378 149.128966 
L 285.881867 145.309729 
L 286.044357 144.66675 
L 286.206847 149.876808 
L 286.369337 147.086889 
L 286.531826 152.305225 
L 286.694316 152.316264 
L 286.856806 149.313857 
L 287.019296 149.073775 
L 287.181785 154.460445 
L 287.344275 151.976837 
L 287.506765 154.123779 
L 287.669255 154.159653 
L 287.831744 154.336265 
L 287.994234 159.598755 
L 288.156724 155.464927 
L 288.319214 154.866101 
L 288.481704 161.237936 
L 288.644193 155.82367 
L 288.806683 159.344875 
L 288.969173 156.764682 
L 289.131663 161.373155 
L 289.294152 161.778811 
L 289.456642 161.122035 
L 289.619132 161.155149 
L 289.781622 160.498373 
L 289.944111 161.066843 
L 290.106601 166.401082 
L 290.269091 166.740508 
L 290.431581 159.676023 
L 290.59407 166.166519 
L 290.75656 167.129607 
L 290.91905 163.779495 
L 291.08154 169.102696 
L 291.244029 161.673948 
L 291.406519 169.420046 
L 291.569009 164.82813 
L 291.731499 172.204447 
L 291.893989 167.827777 
L 292.056478 170.419008 
L 292.218968 165.733267 
L 292.381458 168.382449 
L 292.543948 173.984366 
L 292.706437 164.419714 
L 292.868927 172.49696 
L 293.193907 170.452123 
L 293.356396 174.889503 
L 293.518886 170.490757 
L 293.681376 174.966771 
L 293.843866 171.026112 
L 294.006355 174.067153 
L 294.168845 173.440732 
L 294.331335 170.587342 
L 294.656314 176.989532 
L 294.981294 173.137179 
L 295.143784 177.610434 
L 295.306274 175.656662 
L 295.468763 179.313085 
L 295.631253 176.131307 
L 295.956233 179.296528 
L 296.118722 178.303085 
L 296.281212 180.345162 
L 296.443702 178.355516 
L 296.606192 178.590079 
L 296.768681 181.749781 
L 296.931171 180.858441 
L 297.256151 185.450357 
L 297.41864 173.065431 
L 297.58113 187.484156 
L 297.90611 176.641827 
L 298.0686 186.234074 
L 298.231089 185.599374 
L 298.393579 181.69459 
L 298.556069 187.655249 
L 298.718559 182.381721 
L 298.881048 191.055033 
L 299.043538 178.830161 
L 299.206028 186.672844 
L 299.368518 185.058499 
L 299.531007 188.027791 
L 299.693497 187.133692 
L 299.855987 188.066424 
L 300.018477 187.746315 
L 300.180966 185.519346 
L 300.343456 190.616262 
L 300.505946 186.907407 
L 300.668436 188.080222 
L 300.830925 191.449651 
L 300.993415 186.601096 
L 301.155905 193.326155 
L 301.318395 190.425852 
L 301.480885 191.110224 
L 301.643374 189.504158 
L 301.805864 191.893941 
L 301.968354 192.238886 
L 302.130844 188.681807 
L 302.293333 193.331674 
L 302.455823 194.515527 
L 302.618313 188.54107 
L 302.780803 195.431703 
L 302.943292 195.136429 
L 303.105782 191.493804 
L 303.268272 194.545882 
L 303.593251 195.423424 
L 303.755741 195.155746 
L 303.918231 195.235774 
L 304.080721 199.032935 
L 304.24321 194.772167 
L 304.4057 194.300281 
L 304.56819 197.156431 
L 304.73068 197.200584 
L 304.89317 195.359954 
L 305.055659 200.58657 
L 305.218149 191.761482 
L 305.380639 203.922883 
L 305.543129 196.284408 
L 305.705618 198.574847 
L 305.868108 203.920124 
L 306.030598 198.762497 
L 306.193088 200.823892 
L 306.355577 198.566568 
L 306.518067 199.675913 
L 306.680557 202.957036 
L 306.843047 200.981187 
L 307.005536 196.662469 
L 307.168026 209.673816 
L 307.330516 206.345781 
L 307.493006 195.191621 
L 307.655495 212.792124 
L 307.817985 192.59763 
L 307.980475 211.873189 
L 308.142965 203.108812 
L 308.305455 206.892175 
L 308.467944 204.334058 
L 308.792924 209.549636 
L 308.955414 208.018077 
L 309.117903 202.024303 
L 309.442883 211.928381 
L 309.605373 203.558621 
L 309.767862 212.494091 
L 309.930352 205.366136 
L 310.092842 216.705187 
L 310.417821 205.08742 
L 310.580311 216.934231 
L 310.742801 215.242618 
L 310.905291 215.739339 
L 311.067781 205.316463 
L 311.23027 222.315382 
L 311.39276 208.879062 
L 311.71774 218.311254 
L 311.880229 212.954939 
L 312.042719 221.048742 
L 312.205209 217.662756 
L 312.367699 220.328496 
L 312.530188 213.840759 
L 312.855168 227.321232 
L 313.017658 205.548267 
L 313.180147 228.046998 
L 313.342637 184.909482 
L 313.505127 252.88584 
L 313.830106 216.122919 
L 313.992596 233.094242 
L 314.155086 217.408876 
L 314.317576 219.368167 
L 314.480066 228.949376 
L 314.642555 228.085632 
L 314.805045 219.34885 
L 315.130025 226.686533 
L 315.292514 225.18257 
L 315.455004 225.378499 
L 315.617494 225.971805 
L 315.779984 227.249484 
L 315.942473 216.868001 
L 316.104963 234.785855 
L 316.267453 220.896966 
L 316.429943 234.035253 
L 316.754922 219.379205 
L 316.917412 229.633748 
L 317.404881 219.321254 
L 317.567371 220.022184 
L 317.729861 223.750356 
L 317.892351 214.044967 
L 318.05484 222.031147 
L 318.21733 210.09327 
L 318.37982 213.829721 
L 318.54231 206.723841 
L 318.704799 211.525484 
L 318.867289 202.184358 
L 319.029779 205.319223 
L 319.192269 199.838728 
L 319.354758 199.954629 
L 319.517248 185.891887 
L 319.842228 192.934297 
L 320.167207 181.079207 
L 320.329697 179.4759 
L 320.492187 175.369667 
L 320.654676 178.692183 
L 320.817166 172.267917 
L 320.979656 175.529722 
L 321.304636 162.659112 
L 321.467125 168.686002 
L 321.629615 164.229304 
L 321.792105 163.376599 
L 321.954595 156.295556 
L 322.117084 162.99302 
L 322.279574 154.551511 
L 322.442064 156.176895 
L 322.604554 155.517359 
L 322.767043 156.428015 
L 322.929533 153.458723 
L 323.092023 146.987544 
L 323.254513 157.087551 
L 323.417002 148.09413 
L 323.579492 146.846806 
L 323.741982 151.093776 
L 323.904472 148.709513 
L 324.066962 147.96443 
L 324.229451 143.8444 
L 324.391941 148.888884 
L 324.554431 144.890275 
L 324.716921 145.905795 
L 324.87941 143.129673 
L 325.0419 142.801285 
L 325.20439 142.009289 
L 325.36688 142.337678 
L 325.529369 142.138989 
L 325.691859 140.42254 
L 325.854349 139.91202 
L 326.016839 140.73989 
L 326.179328 139.820955 
L 326.341818 137.080707 
L 326.504308 139.158659 
L 326.829287 134.33494 
L 326.991777 137.50292 
L 327.154267 133.338737 
L 327.316757 137.257319 
L 327.479247 132.375649 
L 327.641736 132.229392 
L 327.804226 132.715075 
L 327.966716 130.355648 
L 328.129206 130.866167 
L 328.291695 128.523297 
L 328.454185 128.799253 
L 328.616675 126.597121 
L 328.779165 126.953104 
L 328.941654 127.778214 
L 329.104144 121.342909 
L 329.266634 124.0666 
L 329.754103 115.520228 
L 329.916593 119.218044 
L 330.079083 113.536101 
L 330.404062 110.492301 
L 330.566552 107.975578 
L 330.729042 110.475743 
L 331.054021 99.191883 
L 331.216511 102.362623 
L 331.379001 94.14188 
L 331.541491 92.014256 
L 331.70398 93.429912 
L 331.86647 90.670348 
L 332.02896 83.592064 
L 332.353939 80.978756 
L 332.516429 81.90321 
L 332.678919 75.018097 
L 332.841409 76.26542 
L 333.166388 68.535879 
L 333.328878 71.844597 
L 333.653857 60.422759 
L 333.816347 71.278886 
L 333.978837 61.785984 
L 334.141327 62.82082 
L 334.303817 59.125763 
L 334.466306 61.722514 
L 334.628796 59.865327 
L 334.791286 60.397923 
L 334.953776 55.690105 
L 335.116265 62.042623 
L 335.278755 53.94882 
L 335.441245 62.387569 
L 335.603735 55.72322 
L 335.766224 55.143711 
L 335.928714 65.792872 
L 336.253694 53.656306 
L 336.416183 64.21716 
L 336.578673 54.762892 
L 336.741163 63.20164 
L 336.903653 59.771501 
L 337.066143 63.574182 
L 337.228632 58.813933 
L 337.391122 65.55279 
L 337.553612 55.59904 
L 337.716102 68.582792 
L 337.878591 58.684233 
L 338.041081 67.8929 
L 338.203571 60.251666 
L 338.366061 67.423774 
L 338.52855 68.218529 
L 338.69104 61.479672 
L 338.85353 64.887734 
L 339.01602 72.451701 
L 339.178509 61.438279 
L 339.340999 68.737327 
L 339.503489 67.572791 
L 339.665979 70.49517 
L 339.828468 65.627298 
L 339.990958 69.435497 
L 340.153448 69.54588 
L 340.315938 73.930828 
L 340.478428 68.395141 
L 340.640917 71.204378 
L 340.803407 72.001892 
L 340.965897 74.847003 
L 341.128387 74.267495 
L 341.453366 71.082957 
L 341.615856 80.614494 
L 341.778346 71.438941 
L 341.940835 77.543098 
L 342.103325 79.162963 
L 342.428305 77.372005 
L 342.590794 78.194355 
L 342.753284 77.322333 
L 342.915774 83.249878 
L 343.078264 78.282662 
L 343.240753 82.628976 
L 343.403243 77.512743 
L 343.565733 84.218485 
L 343.728223 82.860779 
L 343.890713 82.689686 
L 344.053202 78.114328 
L 344.215692 92.599283 
L 344.378182 82.063265 
L 344.703161 86.103268 
L 344.865651 86.641383 
L 345.028141 85.002202 
L 345.190631 89.70174 
L 345.35312 85.766601 
L 345.51561 89.63827 
L 345.6781 85.606546 
L 345.84059 88.733133 
L 346.003079 88.650346 
L 346.165569 89.974937 
L 346.328059 87.082913 
L 346.490549 91.249856 
L 346.653038 88.741412 
L 346.815528 91.346441 
L 346.978018 89.425784 
L 347.140508 91.60584 
L 347.302998 91.561687 
L 347.465487 92.897316 
L 347.627977 90.33644 
L 347.790467 92.963546 
L 347.952957 91.03461 
L 348.115446 94.64688 
L 348.277936 92.143955 
L 348.440426 94.671716 
L 348.602916 94.652399 
L 348.765405 92.450267 
L 348.927895 98.126691 
L 349.090385 93.399557 
L 349.252875 93.043573 
L 349.415364 100.453004 
L 349.577854 90.938025 
L 349.740344 99.208441 
L 349.902834 95.894204 
L 350.065324 97.171882 
L 350.227813 95.72863 
L 350.390303 101.062868 
L 350.552793 93.107043 
L 350.715283 101.043551 
L 350.877772 96.493029 
L 351.040262 100.400573 
L 351.202752 97.166363 
L 351.365242 101.206366 
L 351.690221 100.530272 
L 351.852711 97.950079 
L 352.015201 101.349863 
L 352.17769 101.669972 
L 352.34018 100.29295 
L 352.50267 103.84175 
L 352.827649 101.073907 
L 352.990139 102.103224 
L 353.315119 105.260166 
L 353.477609 104.192215 
L 353.640098 104.986969 
L 353.802588 104.390903 
L 353.965078 106.744812 
L 354.127568 103.825193 
L 354.290057 107.511971 
L 354.452547 102.06735 
L 354.615037 113.53886 
L 354.777527 105.61339 
L 355.264996 110.006617 
L 355.427486 107.914867 
L 355.752465 110.610962 
L 355.914955 113.273942 
L 356.077445 107.318801 
L 356.239934 112.498504 
L 356.402424 111.267739 
L 356.564914 111.184952 
L 356.889894 115.034544 
L 357.052383 112.252903 
L 357.377363 115.120091 
L 357.539853 111.648558 
L 357.702342 115.194599 
L 357.864832 115.338097 
L 358.027322 114.515746 
L 358.189812 115.597496 
L 358.352301 113.105609 
L 358.514791 119.179411 
L 358.677281 115.627851 
L 358.839771 116.988316 
L 359.00226 116.124572 
L 359.16475 118.55023 
L 359.652219 117.065584 
L 359.814709 121.028319 
L 360.139689 117.639573 
L 360.302179 121.966571 
L 360.464668 121.704412 
L 360.627158 122.013484 
L 360.789648 122.979331 
L 360.952138 119.861023 
L 361.114627 126.332202 
L 361.277117 123.49537 
L 361.439607 128.675073 
L 361.602097 123.144905 
L 361.764586 128.192149 
L 361.927076 127.540892 
L 362.252056 129.031057 
L 362.577035 131.533982 
L 362.739525 129.850647 
L 362.902015 134.006552 
L 363.064505 131.749228 
L 363.226994 134.52811 
L 363.389484 134.71576 
L 363.551974 133.686442 
L 363.714464 137.596745 
L 363.876953 135.314585 
L 364.039443 140.085873 
L 364.201933 136.951007 
L 364.364423 136.611581 
L 364.526912 140.756447 
L 364.689402 140.152102 
L 364.851892 143.220738 
L 365.014382 141.11519 
L 365.176871 145.845084 
L 365.339361 141.106912 
L 365.501851 142.784727 
L 365.664341 146.689511 
L 365.82683 144.410111 
L 365.98932 145.375958 
L 366.15181 149.592573 
L 366.3143 145.853363 
L 366.639279 149.576016 
L 366.801769 149.062737 
L 366.964259 152.109296 
L 367.126749 148.60189 
L 367.289238 155.420774 
L 367.614218 149.244868 
L 367.776708 155.693971 
L 367.939197 154.6205 
L 368.101687 157.018562 
L 368.264177 152.699843 
L 368.589156 160.763291 
L 368.751646 156.179654 
L 369.401605 162.096161 
L 369.564095 160.5784 
L 369.726585 160.859876 
L 369.889075 158.875749 
L 370.051564 162.99026 
L 370.214054 161.673948 
L 370.376544 164.938513 
L 370.539034 163.130998 
L 370.701523 163.895397 
L 371.026503 168.222395 
L 371.188993 159.69258 
L 371.351482 168.796384 
L 371.513972 165.667038 
L 371.676462 165.915399 
L 371.838952 168.75775 
L 372.001441 168.029225 
L 372.163931 168.509389 
L 372.326421 167.844334 
L 372.488911 166.445235 
L 372.6514 177.323439 
L 372.81389 165.959552 
L 372.97638 170.165128 
L 373.13887 169.356576 
L 373.463849 173.782918 
L 373.626339 171.23032 
L 373.951319 174.59147 
L 374.113808 167.582176 
L 374.276298 177.602155 
L 374.438788 170.780511 
L 374.601278 177.036444 
L 374.763767 172.990922 
L 374.926257 174.298956 
L 375.088747 178.52109 
L 375.251237 174.770842 
L 375.413726 174.65218 
L 375.576216 182.152677 
L 375.738706 173.57595 
L 375.901196 178.385871 
L 376.063686 172.014037 
L 376.226175 183.411039 
L 376.388665 181.344125 
L 376.551155 175.173738 
L 376.713645 182.952951 
L 376.876134 176.288602 
L 377.201114 183.314454 
L 377.363604 179.119916 
L 377.688583 182.207869 
L 377.851073 190.878421 
L 378.013563 173.462808 
L 378.176052 184.490029 
L 378.338542 185.086095 
L 378.501032 180.902594 
L 378.663522 185.723554 
L 378.988501 183.217869 
L 379.150991 186.314101 
L 379.313481 186.421724 
L 379.475971 183.797378 
L 379.63846 183.935356 
L 379.80095 189.918092 
L 379.96344 188.963283 
L 380.12593 189.642136 
L 380.288419 182.569372 
L 380.450909 194.556921 
L 380.613399 182.318251 
L 380.775889 190.478284 
L 381.100868 188.66525 
L 381.263358 188.634895 
L 381.588337 193.132985 
L 381.750827 185.695958 
L 381.913317 188.684567 
L 382.075807 195.870473 
L 382.238296 191.537957 
L 382.400786 193.019843 
L 382.563276 191.079869 
L 382.725766 190.580388 
L 383.050745 196.176785 
L 383.213235 188.09402 
L 383.375725 198.712825 
L 383.538215 190.762519 
L 383.700704 194.650746 
L 383.863194 193.61039 
L 384.025684 198.699027 
L 384.188174 194.463095 
L 384.350663 196.000173 
L 384.513153 194.076756 
L 384.675643 198.194027 
L 384.838133 194.678342 
L 385.000622 199.982225 
L 385.325602 194.537604 
L 385.650581 205.882174 
L 385.813071 191.444132 
L 386.138051 201.008783 
L 386.300541 201.720751 
L 386.46303 201.740068 
L 386.62552 202.877008 
L 386.78801 194.882549 
L 386.9505 206.067065 
L 387.112989 197.139873 
L 387.275479 201.706953 
L 387.437969 202.543101 
L 387.600459 207.143295 
L 387.762948 202.606571 
L 387.925438 201.715232 
L 388.250418 206.712803 
L 388.412907 200.189192 
L 388.575397 211.599992 
L 388.900377 203.732473 
L 389.062867 204.971518 
L 389.225356 212.369911 
L 389.387846 199.664875 
L 389.550336 216.520296 
L 389.712826 205.382693 
L 389.875315 214.097398 
L 390.037805 202.882527 
L 390.200295 211.724173 
L 390.362785 207.129498 
L 390.687764 216.680351 
L 390.850254 214.580322 
L 391.012744 204.496873 
L 391.175233 218.697593 
L 391.337723 210.242286 
L 391.500213 215.369558 
L 391.662703 213.269529 
L 391.825192 220.632048 
L 391.987682 211.186058 
L 392.150172 221.327458 
L 392.312662 204.891491 
L 392.475152 227.616506 
L 392.637641 216.327127 
L 392.962621 224.741039 
L 393.125111 212.742452 
L 393.2876 216.282974 
L 393.45009 227.597189 
L 393.61258 201.293018 
L 393.77507 239.363973 
L 394.100049 218.424396 
L 394.262539 224.026312 
L 394.425029 217.935953 
L 394.587518 227.3985 
L 394.750008 229.073556 
L 394.912498 220.927321 
L 395.074988 229.975934 
L 395.237477 218.468549 
L 395.399967 231.07976 
L 395.562457 219.7959 
L 395.887437 229.451616 
L 396.049926 228.146342 
L 396.212416 219.704834 
L 396.374906 229.070797 
L 396.537396 229.137026 
L 396.699885 225.800712 
L 396.862375 218.264341 
L 397.024865 235.232905 
L 397.187355 220.060818 
L 397.349844 228.750687 
L 397.512334 218.170516 
L 397.674824 225.030794 
L 397.999803 214.163628 
L 398.162293 220.248468 
L 398.324783 212.229173 
L 398.487273 214.687945 
L 398.487273 214.687945 
" clip-path="url(#paf7d775b35)" style="fill: none; stroke: #ff0000; stroke-width: 1.5; stroke-linecap: square"/>
   </g>
   <g id="patch_3">
    <path d="M 57.6 307.584 
L 57.6 41.472 
" style="fill: none; stroke: #000000; stroke-width: 0.8; stroke-linejoin: miter; stroke-linecap: square"/>
   </g>
   <g id="patch_4">
    <path d="M 414.72 307.584 
L 414.72 41.472 
" style="fill: none; stroke: #000000; stroke-width: 0.8; stroke-linejoin: miter; stroke-linecap: square"/>
   </g>
   <g id="patch_5">
    <path d="M 57.6 307.584 
L 414.72 307.584 
" style="fill: none; stroke: #000000; stroke-width: 0.8; stroke-linejoin: miter; stroke-linecap: square"/>
   </g>
   <g id="patch_6">
    <path d="M 57.6 41.472 
L 414.72 41.472 
" style="fill: none; stroke: #000000; stroke-width: 0.8; stroke-linejoin: miter; stroke-linecap: square"/>
   </g>
  </g>
 </g>
 <defs>
  <clipPath id="paf7d775b35">
   <rect x="57.6" y="41.472" width="357.12" height="266.112"/>
  </clipPath>
 </defs>
</svg>
