<?xml version="1.0" encoding="utf-8" standalone="no"?>
<!DOCTYPE svg PUBLIC "-//W3C//DTD SVG 1.1//EN"
  "http://www.w3.org/Graphics/SVG/1.1/DTD/svg11.dtd">
<svg xmlns:xlink="http://www.w3.org/1999/xlink" width="460.8pt" height="345.6pt" viewBox="0 0 460.8 345.6" xmlns="http://www.w3.org/2000/svg" version="1.1">
 <metadata>
  <rdf:RDF xmlns:dc="http://purl.org/dc/elements/1.1/" xmlns:cc="http://creativecommons.org/ns#" xmlns:rdf="http://www.w3.org/1999/02/22-rdf-syntax-ns#">
   <cc:Work>
    <dc:type rdf:resource="http://purl.org/dc/dcmitype/StillImage"/>
    <dc:date>2024-07-24T11:05:36.568944</dc:date>
    <dc:format>image/svg+xml</dc:format>
    <dc:creator>
     <cc:Agent>
      <dc:title>Matplotlib v3.8.3, https://matplotlib.org/</dc:title>
     </cc:Agent>
    </dc:creator>
   </cc:Work>
  </rdf:RDF>
 </metadata>
 <defs>
  <style type="text/css">*{stroke-linejoin: round; stroke-linecap: butt}</style>
 </defs>
 <g id="figure_1">
  <g id="patch_1">
   <path d="M 0 345.6 
L 460.8 345.6 
L 460.8 0 
L 0 0 
z
" style="fill: #ffffff"/>
  </g>
  <g id="axes_1">
   <g id="patch_2">
    <path d="M 57.6 307.584 
L 414.72 307.584 
L 414.72 41.472 
L 57.6 41.472 
z
" style="fill: #ffffff"/>
   </g>
   <g id="matplotlib.axis_1">
    <g id="xtick_1">
     <g id="line2d_1">
      <defs>
       <path id="me354145b51" d="M 0 0 
L 0 3.5 
" style="stroke: #000000; stroke-width: 0.8"/>
      </defs>
      <g>
       <use xlink:href="#me354145b51" x="73.670156" y="307.584" style="stroke: #000000; stroke-width: 0.8"/>
      </g>
     </g>
     <g id="text_1">
      <!-- 0.00 -->
      <g transform="translate(62.537344 322.182437) scale(0.1 -0.1)">
       <defs>
        <path id="DejaVuSans-30" d="M 2034 4250 
Q 1547 4250 1301 3770 
Q 1056 3291 1056 2328 
Q 1056 1369 1301 889 
Q 1547 409 2034 409 
Q 2525 409 2770 889 
Q 3016 1369 3016 2328 
Q 3016 3291 2770 3770 
Q 2525 4250 2034 4250 
z
M 2034 4750 
Q 2819 4750 3233 4129 
Q 3647 3509 3647 2328 
Q 3647 1150 3233 529 
Q 2819 -91 2034 -91 
Q 1250 -91 836 529 
Q 422 1150 422 2328 
Q 422 3509 836 4129 
Q 1250 4750 2034 4750 
z
" transform="scale(0.015625)"/>
        <path id="DejaVuSans-2e" d="M 684 794 
L 1344 794 
L 1344 0 
L 684 0 
L 684 794 
z
" transform="scale(0.015625)"/>
       </defs>
       <use xlink:href="#DejaVuSans-30"/>
       <use xlink:href="#DejaVuSans-2e" x="63.623047"/>
       <use xlink:href="#DejaVuSans-30" x="95.410156"/>
       <use xlink:href="#DejaVuSans-30" x="159.033203"/>
      </g>
     </g>
    </g>
    <g id="xtick_2">
     <g id="line2d_2">
      <g>
       <use xlink:href="#me354145b51" x="140.859567" y="307.584" style="stroke: #000000; stroke-width: 0.8"/>
      </g>
     </g>
     <g id="text_2">
      <!-- 0.02 -->
      <g transform="translate(129.726755 322.182437) scale(0.1 -0.1)">
       <defs>
        <path id="DejaVuSans-32" d="M 1228 531 
L 3431 531 
L 3431 0 
L 469 0 
L 469 531 
Q 828 903 1448 1529 
Q 2069 2156 2228 2338 
Q 2531 2678 2651 2914 
Q 2772 3150 2772 3378 
Q 2772 3750 2511 3984 
Q 2250 4219 1831 4219 
Q 1534 4219 1204 4116 
Q 875 4013 500 3803 
L 500 4441 
Q 881 4594 1212 4672 
Q 1544 4750 1819 4750 
Q 2544 4750 2975 4387 
Q 3406 4025 3406 3419 
Q 3406 3131 3298 2873 
Q 3191 2616 2906 2266 
Q 2828 2175 2409 1742 
Q 1991 1309 1228 531 
z
" transform="scale(0.015625)"/>
       </defs>
       <use xlink:href="#DejaVuSans-30"/>
       <use xlink:href="#DejaVuSans-2e" x="63.623047"/>
       <use xlink:href="#DejaVuSans-30" x="95.410156"/>
       <use xlink:href="#DejaVuSans-32" x="159.033203"/>
      </g>
     </g>
    </g>
    <g id="xtick_3">
     <g id="line2d_3">
      <g>
       <use xlink:href="#me354145b51" x="208.048978" y="307.584" style="stroke: #000000; stroke-width: 0.8"/>
      </g>
     </g>
     <g id="text_3">
      <!-- 0.04 -->
      <g transform="translate(196.916166 322.182437) scale(0.1 -0.1)">
       <defs>
        <path id="DejaVuSans-34" d="M 2419 4116 
L 825 1625 
L 2419 1625 
L 2419 4116 
z
M 2253 4666 
L 3047 4666 
L 3047 1625 
L 3713 1625 
L 3713 1100 
L 3047 1100 
L 3047 0 
L 2419 0 
L 2419 1100 
L 313 1100 
L 313 1709 
L 2253 4666 
z
" transform="scale(0.015625)"/>
       </defs>
       <use xlink:href="#DejaVuSans-30"/>
       <use xlink:href="#DejaVuSans-2e" x="63.623047"/>
       <use xlink:href="#DejaVuSans-30" x="95.410156"/>
       <use xlink:href="#DejaVuSans-34" x="159.033203"/>
      </g>
     </g>
    </g>
    <g id="xtick_4">
     <g id="line2d_4">
      <g>
       <use xlink:href="#me354145b51" x="275.23839" y="307.584" style="stroke: #000000; stroke-width: 0.8"/>
      </g>
     </g>
     <g id="text_4">
      <!-- 0.06 -->
      <g transform="translate(264.105577 322.182437) scale(0.1 -0.1)">
       <defs>
        <path id="DejaVuSans-36" d="M 2113 2584 
Q 1688 2584 1439 2293 
Q 1191 2003 1191 1497 
Q 1191 994 1439 701 
Q 1688 409 2113 409 
Q 2538 409 2786 701 
Q 3034 994 3034 1497 
Q 3034 2003 2786 2293 
Q 2538 2584 2113 2584 
z
M 3366 4563 
L 3366 3988 
Q 3128 4100 2886 4159 
Q 2644 4219 2406 4219 
Q 1781 4219 1451 3797 
Q 1122 3375 1075 2522 
Q 1259 2794 1537 2939 
Q 1816 3084 2150 3084 
Q 2853 3084 3261 2657 
Q 3669 2231 3669 1497 
Q 3669 778 3244 343 
Q 2819 -91 2113 -91 
Q 1303 -91 875 529 
Q 447 1150 447 2328 
Q 447 3434 972 4092 
Q 1497 4750 2381 4750 
Q 2619 4750 2861 4703 
Q 3103 4656 3366 4563 
z
" transform="scale(0.015625)"/>
       </defs>
       <use xlink:href="#DejaVuSans-30"/>
       <use xlink:href="#DejaVuSans-2e" x="63.623047"/>
       <use xlink:href="#DejaVuSans-30" x="95.410156"/>
       <use xlink:href="#DejaVuSans-36" x="159.033203"/>
      </g>
     </g>
    </g>
    <g id="xtick_5">
     <g id="line2d_5">
      <g>
       <use xlink:href="#me354145b51" x="342.427801" y="307.584" style="stroke: #000000; stroke-width: 0.8"/>
      </g>
     </g>
     <g id="text_5">
      <!-- 0.08 -->
      <g transform="translate(331.294988 322.182437) scale(0.1 -0.1)">
       <defs>
        <path id="DejaVuSans-38" d="M 2034 2216 
Q 1584 2216 1326 1975 
Q 1069 1734 1069 1313 
Q 1069 891 1326 650 
Q 1584 409 2034 409 
Q 2484 409 2743 651 
Q 3003 894 3003 1313 
Q 3003 1734 2745 1975 
Q 2488 2216 2034 2216 
z
M 1403 2484 
Q 997 2584 770 2862 
Q 544 3141 544 3541 
Q 544 4100 942 4425 
Q 1341 4750 2034 4750 
Q 2731 4750 3128 4425 
Q 3525 4100 3525 3541 
Q 3525 3141 3298 2862 
Q 3072 2584 2669 2484 
Q 3125 2378 3379 2068 
Q 3634 1759 3634 1313 
Q 3634 634 3220 271 
Q 2806 -91 2034 -91 
Q 1263 -91 848 271 
Q 434 634 434 1313 
Q 434 1759 690 2068 
Q 947 2378 1403 2484 
z
M 1172 3481 
Q 1172 3119 1398 2916 
Q 1625 2713 2034 2713 
Q 2441 2713 2670 2916 
Q 2900 3119 2900 3481 
Q 2900 3844 2670 4047 
Q 2441 4250 2034 4250 
Q 1625 4250 1398 4047 
Q 1172 3844 1172 3481 
z
" transform="scale(0.015625)"/>
       </defs>
       <use xlink:href="#DejaVuSans-30"/>
       <use xlink:href="#DejaVuSans-2e" x="63.623047"/>
       <use xlink:href="#DejaVuSans-30" x="95.410156"/>
       <use xlink:href="#DejaVuSans-38" x="159.033203"/>
      </g>
     </g>
    </g>
    <g id="xtick_6">
     <g id="line2d_6">
      <g>
       <use xlink:href="#me354145b51" x="409.617212" y="307.584" style="stroke: #000000; stroke-width: 0.8"/>
      </g>
     </g>
     <g id="text_6">
      <!-- 0.10 -->
      <g transform="translate(398.484399 322.182437) scale(0.1 -0.1)">
       <defs>
        <path id="DejaVuSans-31" d="M 794 531 
L 1825 531 
L 1825 4091 
L 703 3866 
L 703 4441 
L 1819 4666 
L 2450 4666 
L 2450 531 
L 3481 531 
L 3481 0 
L 794 0 
L 794 531 
z
" transform="scale(0.015625)"/>
       </defs>
       <use xlink:href="#DejaVuSans-30"/>
       <use xlink:href="#DejaVuSans-2e" x="63.623047"/>
       <use xlink:href="#DejaVuSans-31" x="95.410156"/>
       <use xlink:href="#DejaVuSans-30" x="159.033203"/>
      </g>
     </g>
    </g>
   </g>
   <g id="matplotlib.axis_2">
    <g id="ytick_1">
     <g id="line2d_7">
      <defs>
       <path id="m2590bd60e5" d="M 0 0 
L -3.5 0 
" style="stroke: #000000; stroke-width: 0.8"/>
      </defs>
      <g>
       <use xlink:href="#m2590bd60e5" x="57.6" y="283.72482" style="stroke: #000000; stroke-width: 0.8"/>
      </g>
     </g>
     <g id="text_7">
      <!-- −4 -->
      <g transform="translate(35.857813 287.524038) scale(0.1 -0.1)">
       <defs>
        <path id="DejaVuSans-2212" d="M 678 2272 
L 4684 2272 
L 4684 1741 
L 678 1741 
L 678 2272 
z
" transform="scale(0.015625)"/>
       </defs>
       <use xlink:href="#DejaVuSans-2212"/>
       <use xlink:href="#DejaVuSans-34" x="83.789062"/>
      </g>
     </g>
    </g>
    <g id="ytick_2">
     <g id="line2d_8">
      <g>
       <use xlink:href="#m2590bd60e5" x="57.6" y="248.073079" style="stroke: #000000; stroke-width: 0.8"/>
      </g>
     </g>
     <g id="text_8">
      <!-- −3 -->
      <g transform="translate(35.857813 251.872297) scale(0.1 -0.1)">
       <defs>
        <path id="DejaVuSans-33" d="M 2597 2516 
Q 3050 2419 3304 2112 
Q 3559 1806 3559 1356 
Q 3559 666 3084 287 
Q 2609 -91 1734 -91 
Q 1441 -91 1130 -33 
Q 819 25 488 141 
L 488 750 
Q 750 597 1062 519 
Q 1375 441 1716 441 
Q 2309 441 2620 675 
Q 2931 909 2931 1356 
Q 2931 1769 2642 2001 
Q 2353 2234 1838 2234 
L 1294 2234 
L 1294 2753 
L 1863 2753 
Q 2328 2753 2575 2939 
Q 2822 3125 2822 3475 
Q 2822 3834 2567 4026 
Q 2313 4219 1838 4219 
Q 1578 4219 1281 4162 
Q 984 4106 628 3988 
L 628 4550 
Q 988 4650 1302 4700 
Q 1616 4750 1894 4750 
Q 2613 4750 3031 4423 
Q 3450 4097 3450 3541 
Q 3450 3153 3228 2886 
Q 3006 2619 2597 2516 
z
" transform="scale(0.015625)"/>
       </defs>
       <use xlink:href="#DejaVuSans-2212"/>
       <use xlink:href="#DejaVuSans-33" x="83.789062"/>
      </g>
     </g>
    </g>
    <g id="ytick_3">
     <g id="line2d_9">
      <g>
       <use xlink:href="#m2590bd60e5" x="57.6" y="212.421337" style="stroke: #000000; stroke-width: 0.8"/>
      </g>
     </g>
     <g id="text_9">
      <!-- −2 -->
      <g transform="translate(35.857813 216.220556) scale(0.1 -0.1)">
       <use xlink:href="#DejaVuSans-2212"/>
       <use xlink:href="#DejaVuSans-32" x="83.789062"/>
      </g>
     </g>
    </g>
    <g id="ytick_4">
     <g id="line2d_10">
      <g>
       <use xlink:href="#m2590bd60e5" x="57.6" y="176.769596" style="stroke: #000000; stroke-width: 0.8"/>
      </g>
     </g>
     <g id="text_10">
      <!-- −1 -->
      <g transform="translate(35.857813 180.568815) scale(0.1 -0.1)">
       <use xlink:href="#DejaVuSans-2212"/>
       <use xlink:href="#DejaVuSans-31" x="83.789062"/>
      </g>
     </g>
    </g>
    <g id="ytick_5">
     <g id="line2d_11">
      <g>
       <use xlink:href="#m2590bd60e5" x="57.6" y="141.117855" style="stroke: #000000; stroke-width: 0.8"/>
      </g>
     </g>
     <g id="text_11">
      <!-- 0 -->
      <g transform="translate(44.2375 144.917074) scale(0.1 -0.1)">
       <use xlink:href="#DejaVuSans-30"/>
      </g>
     </g>
    </g>
    <g id="ytick_6">
     <g id="line2d_12">
      <g>
       <use xlink:href="#m2590bd60e5" x="57.6" y="105.466114" style="stroke: #000000; stroke-width: 0.8"/>
      </g>
     </g>
     <g id="text_12">
      <!-- 1 -->
      <g transform="translate(44.2375 109.265333) scale(0.1 -0.1)">
       <use xlink:href="#DejaVuSans-31"/>
      </g>
     </g>
    </g>
    <g id="ytick_7">
     <g id="line2d_13">
      <g>
       <use xlink:href="#m2590bd60e5" x="57.6" y="69.814373" style="stroke: #000000; stroke-width: 0.8"/>
      </g>
     </g>
     <g id="text_13">
      <!-- 2 -->
      <g transform="translate(44.2375 73.613592) scale(0.1 -0.1)">
       <use xlink:href="#DejaVuSans-32"/>
      </g>
     </g>
    </g>
    <g id="text_14">
     <!-- 1e7 -->
     <g transform="translate(57.6 38.472) scale(0.1 -0.1)">
      <defs>
       <path id="DejaVuSans-65" d="M 3597 1894 
L 3597 1613 
L 953 1613 
Q 991 1019 1311 708 
Q 1631 397 2203 397 
Q 2534 397 2845 478 
Q 3156 559 3463 722 
L 3463 178 
Q 3153 47 2828 -22 
Q 2503 -91 2169 -91 
Q 1331 -91 842 396 
Q 353 884 353 1716 
Q 353 2575 817 3079 
Q 1281 3584 2069 3584 
Q 2775 3584 3186 3129 
Q 3597 2675 3597 1894 
z
M 3022 2063 
Q 3016 2534 2758 2815 
Q 2500 3097 2075 3097 
Q 1594 3097 1305 2825 
Q 1016 2553 972 2059 
L 3022 2063 
z
" transform="scale(0.015625)"/>
       <path id="DejaVuSans-37" d="M 525 4666 
L 3525 4666 
L 3525 4397 
L 1831 0 
L 1172 0 
L 2766 4134 
L 525 4134 
L 525 4666 
z
" transform="scale(0.015625)"/>
      </defs>
      <use xlink:href="#DejaVuSans-31"/>
      <use xlink:href="#DejaVuSans-65" x="63.623047"/>
      <use xlink:href="#DejaVuSans-37" x="125.146484"/>
     </g>
    </g>
   </g>
   <g id="line2d_14">
    <path d="M 73.832727 141.956699 
L 73.995298 145.18478 
L 74.15787 124.964396 
L 74.320441 159.210121 
L 74.483012 133.313668 
L 74.645583 134.57683 
L 74.808154 159.210121 
L 74.970725 125.907688 
L 75.133296 155.198684 
L 75.295867 116.699987 
L 75.458439 169.632023 
L 75.62101 131.688204 
L 75.783581 138.555627 
L 75.946152 139.959141 
L 76.108723 136.391606 
L 76.271294 143.683347 
L 76.433865 141.718428 
L 76.596436 137.321841 
L 76.759008 138.43486 
L 76.921579 151.843308 
L 77.08415 122.193273 
L 77.246721 150.48549 
L 77.409292 129.321815 
L 77.571863 133.623747 
L 77.734434 152.469993 
L 77.897006 131.289998 
L 78.059577 148.102782 
L 78.222148 121.181438 
L 78.384719 154.957149 
L 78.54729 123.188788 
L 78.709861 148.833914 
L 78.872432 128.985625 
L 79.035003 144.639694 
L 79.197575 130.692689 
L 79.360146 140.569506 
L 79.522717 141.871836 
L 79.685288 134.903229 
L 79.847859 141.421406 
L 80.01043 133.555203 
L 80.335572 144.76699 
L 80.498144 134.678014 
L 80.660715 145.687433 
L 80.823286 134.482175 
L 80.985857 134.387519 
L 81.148428 144.313296 
L 81.310999 138.797162 
L 81.47357 140.370403 
L 81.636141 138.744938 
L 81.798713 141.920795 
L 81.961284 135.304699 
L 82.123855 144.721294 
L 82.286426 134.152512 
L 82.448997 148.194173 
L 82.611568 134.684542 
L 82.936711 143.621331 
L 83.099282 136.626612 
L 83.261853 143.334101 
L 83.424424 136.045623 
L 83.586995 144.992205 
L 83.749566 136.711476 
L 83.912137 139.443431 
L 84.074708 146.144391 
L 84.23728 135.314491 
L 84.399851 142.204762 
L 84.562422 138.891818 
L 84.887564 142.6454 
L 85.050135 136.985651 
L 85.212706 143.239445 
L 85.375277 136.874675 
L 85.537849 144.62011 
L 85.70042 136.287158 
L 85.862991 145.53729 
L 86.025562 135.771449 
L 86.188133 143.618067 
L 86.350704 137.612336 
L 86.675846 142.877143 
L 86.838418 134.694334 
L 87.000989 144.76699 
L 87.16356 136.456885 
L 87.326131 142.325529 
L 87.488702 140.393251 
L 87.651273 141.258206 
L 87.813844 136.424245 
L 87.976416 141.610717 
L 88.138987 139.880805 
L 88.301558 139.368359 
L 88.464129 140.148452 
L 88.6267 139.903653 
L 88.789271 137.096626 
L 89.114413 141.7119 
L 89.439556 135.549498 
L 89.602127 142.593176 
L 89.764698 134.730238 
L 89.927269 141.74454 
L 90.08984 137.008499 
L 90.252411 138.072558 
L 90.414982 136.104375 
L 90.577554 144.897549 
L 90.740125 131.489101 
L 91.065267 142.459353 
L 91.227838 133.604163 
L 91.390409 141.160287 
L 91.55298 136.73106 
L 91.715552 136.009719 
L 91.878123 137.596016 
L 92.040694 140.762081 
L 92.203265 146.908164 
L 92.365836 128.003166 
L 92.528407 141.747804 
L 92.690978 139.28676 
L 92.853549 139.064809 
L 93.016121 141.421406 
L 93.178692 136.440565 
L 93.341263 141.692316 
L 93.503834 138.813482 
L 93.666405 141.463837 
L 93.828976 140.804513 
L 93.991547 144.476495 
L 94.154118 135.07622 
L 94.479261 145.142348 
L 94.641832 142.002395 
L 94.804403 142.19497 
L 94.966974 133.176581 
L 95.129545 150.113396 
L 95.292116 138.206381 
L 95.454687 141.672732 
L 95.617259 142.756375 
L 95.77983 138.790634 
L 95.942401 143.725779 
L 96.104972 143.229653 
L 96.267543 139.146408 
L 96.430114 139.051753 
L 96.592685 147.250882 
L 96.755257 136.358966 
L 96.917828 144.026065 
L 97.080399 139.988516 
L 97.24297 146.229255 
L 97.568112 138.555627 
L 97.730683 143.020758 
L 97.893254 137.024819 
L 98.055826 145.964872 
L 98.218397 143.376532 
L 98.380968 134.162304 
L 98.543539 149.271288 
L 98.70611 141.173343 
L 99.031252 139.374887 
L 99.193823 143.892242 
L 99.518966 137.801647 
L 99.681537 150.723761 
L 99.844108 139.342248 
L 100.006679 137.922414 
L 100.331821 144.731086 
L 100.494392 143.585427 
L 100.656964 135.817144 
L 100.819535 146.431622 
L 100.982106 139.469543 
L 101.144677 139.028905 
L 101.307248 147.64256 
L 101.63239 138.48382 
L 101.794962 140.771873 
L 101.957533 145.341451 
L 102.120104 133.995841 
L 102.282675 151.660525 
L 102.445246 139.081129 
L 102.607817 142.018715 
L 102.770388 138.849386 
L 102.932959 141.483421 
L 103.095531 141.153759 
L 103.258102 146.483846 
L 103.420673 139.241064 
L 103.745815 144.812686 
L 103.908386 139.897125 
L 104.070957 138.996265 
L 104.233528 143.356948 
L 104.3961 144.215376 
L 104.558671 138.059502 
L 104.721242 141.754332 
L 104.883813 141.166815 
L 105.046384 145.116236 
L 105.208955 139.165992 
L 105.371526 140.197411 
L 105.534098 143.846546 
L 105.696669 139.916709 
L 105.85924 139.965669 
L 106.021811 145.671113 
L 106.184382 135.84652 
L 106.346953 147.440193 
L 106.509524 137.158642 
L 106.672095 144.62011 
L 106.834667 143.314517 
L 106.997238 134.508287 
L 107.159809 145.65153 
L 107.32238 144.150097 
L 107.484951 136.629876 
L 107.647522 143.999953 
L 107.810093 138.73841 
L 107.972664 144.714766 
L 108.135236 142.651928 
L 108.297807 138.154157 
L 108.460378 144.414479 
L 108.622949 140.125604 
L 108.78552 139.25412 
L 108.948091 144.257808 
L 109.110662 139.348776 
L 109.273233 144.006481 
L 109.435805 138.633963 
L 109.598376 144.678862 
L 109.923518 137.860399 
L 110.086089 147.72416 
L 110.24866 135.918328 
L 110.411231 144.874701 
L 110.573803 140.406306 
L 110.736374 142.142746 
L 110.898945 141.643357 
L 111.061516 138.888554 
L 111.386658 144.610318 
L 111.549229 139.626214 
L 111.7118 143.872658 
L 111.874372 139.146408 
L 112.036943 141.780444 
L 112.199514 142.14601 
L 112.362085 141.653149 
L 112.524656 141.881627 
L 112.687227 138.676395 
L 112.849798 144.780046 
L 113.012369 143.265557 
L 113.174941 138.806954 
L 113.337512 142.700888 
L 113.500083 137.955054 
L 113.662654 145.530762 
L 113.825225 139.632742 
L 113.987796 143.683347 
L 114.150367 136.574389 
L 114.312938 147.56096 
L 114.47551 140.484642 
L 114.638081 142.756375 
L 114.800652 136.6821 
L 114.963223 145.481802 
L 115.125794 140.768609 
L 115.288365 141.297374 
L 115.450936 143.778002 
L 115.613508 136.339382 
L 115.776079 146.509957 
L 115.93865 138.996265 
L 116.101221 142.021979 
L 116.263792 140.562978 
L 116.426363 143.787794 
L 116.751505 139.508711 
L 116.914077 143.239445 
L 117.076648 140.279011 
L 117.239219 140.667425 
L 117.40179 142.99791 
L 117.564361 138.751466 
L 117.726932 145.752713 
L 117.889503 138.571947 
L 118.052074 144.776782 
L 118.214646 136.669044 
L 118.377217 143.78453 
L 118.539788 141.065631 
L 118.702359 142.834711 
L 118.86493 140.546658 
L 119.190072 143.618067 
L 119.352644 139.182312 
L 119.677786 143.35042 
L 119.840357 144.665806 
L 120.002928 137.063986 
L 120.165499 143.804114 
L 120.32807 142.390809 
L 120.490641 142.521368 
L 120.653213 140.194147 
L 120.815784 145.357771 
L 120.978355 140.050532 
L 121.140926 139.224744 
L 121.303497 146.167239 
L 121.466068 141.065631 
L 121.628639 140.455266 
L 121.79121 143.996689 
L 122.116353 140.514018 
L 122.441495 144.061969 
L 122.604066 139.649062 
L 122.766637 143.105622 
L 122.929208 142.619288 
L 123.091779 138.839594 
L 123.254351 146.163975 
L 123.416922 138.196589 
L 123.579493 146.970179 
L 123.742064 136.244726 
L 123.904635 145.9714 
L 124.067206 138.673131 
L 124.229777 146.588293 
L 124.392349 139.355303 
L 124.55492 139.822053 
L 124.717491 146.777604 
L 124.880062 138.225965 
L 125.205204 143.35042 
L 125.367775 141.790236 
L 125.530346 143.249237 
L 125.692918 138.607851 
L 125.855489 144.528719 
L 126.01806 139.596838 
L 126.180631 148.334525 
L 126.343202 135.10886 
L 126.505773 144.691918 
L 126.668344 140.549922 
L 126.830915 140.510754 
L 126.993487 145.047692 
L 127.156058 141.019936 
L 127.318629 146.193351 
L 127.4812 132.664135 
L 127.643771 149.26476 
L 127.806342 139.110505 
L 127.968913 143.347156 
L 128.131484 139.348776 
L 128.456627 146.314118 
L 128.619198 135.288379 
L 128.781769 143.813906 
L 128.94434 142.067675 
L 129.106911 142.681304 
L 129.269482 141.724956 
L 129.432054 142.700888 
L 129.594625 140.128868 
L 129.757196 140.536866 
L 129.919767 147.032195 
L 130.082338 132.341001 
L 130.244909 147.531585 
L 130.40748 140.869792 
L 130.570051 144.770254 
L 130.732623 132.866502 
L 130.895194 150.674802 
L 131.057765 139.417319 
L 131.220336 137.367537 
L 131.382907 148.915514 
L 131.545478 133.212485 
L 131.708049 150.53445 
L 131.87062 130.774288 
L 132.033192 148.987322 
L 132.195763 141.248414 
L 132.358334 141.431198 
L 132.520905 138.891818 
L 132.683476 143.007702 
L 132.846047 142.808599 
L 133.008618 141.26147 
L 133.17119 138.327148 
L 133.333761 148.631547 
L 133.496332 133.33978 
L 133.658903 146.996291 
L 133.821474 137.553584 
L 133.984045 146.297798 
L 134.146616 139.844901 
L 134.309187 144.66907 
L 134.471759 138.141101 
L 134.63433 136.39487 
L 134.796901 149.64991 
L 134.959472 135.474426 
L 135.122043 146.878788 
L 135.284614 138.882026 
L 135.447185 146.48711 
L 135.609756 131.720844 
L 135.772328 149.320248 
L 135.934899 139.792677 
L 136.09747 140.239843 
L 136.260041 145.047692 
L 136.422612 137.762479 
L 136.585183 139.567462 
L 136.747754 150.896753 
L 136.910325 133.140677 
L 137.072897 147.123586 
L 137.235468 135.02726 
L 137.398039 146.415302 
L 137.56061 144.238224 
L 137.885752 136.904051 
L 138.048323 149.339832 
L 138.210895 131.009295 
L 138.373466 149.499767 
L 138.536037 141.509533 
L 138.698608 139.342248 
L 138.861179 143.745363 
L 139.02375 139.260648 
L 139.186321 143.115414 
L 139.511464 137.941998 
L 139.674035 147.185602 
L 139.836606 139.968933 
L 139.999177 140.530338 
L 140.161748 145.494858 
L 140.324319 137.070514 
L 140.48689 147.276994 
L 140.649461 138.013806 
L 140.974604 140.063588 
L 141.137175 147.397761 
L 141.299746 137.13253 
L 141.462317 142.570328 
L 141.624888 143.771474 
L 141.787459 136.522165 
L 141.950031 145.338187 
L 142.112602 142.808599 
L 142.275173 134.916285 
L 142.437744 149.124409 
L 142.600315 136.6821 
L 142.762886 145.10318 
L 142.925457 137.638448 
L 143.2506 147.286786 
L 143.413171 133.447492 
L 143.575742 144.075025 
L 143.738313 145.367563 
L 143.900884 134.103552 
L 144.063455 147.789439 
L 144.226026 135.255739 
L 144.388597 145.92244 
L 144.551169 139.025641 
L 144.71374 146.604613 
L 144.876311 137.008499 
L 145.038882 143.213333 
L 145.201453 140.396515 
L 145.364024 145.778825 
L 145.526595 131.583756 
L 145.689166 152.891047 
L 145.851738 135.317755 
L 146.17688 147.032195 
L 146.339451 139.407527 
L 146.502022 144.424271 
L 146.664593 136.228406 
L 146.827164 144.577679 
L 146.989736 140.148452 
L 147.152307 143.412436 
L 147.314878 139.75351 
L 147.477449 142.371225 
L 147.64002 140.360611 
L 147.802591 144.192528 
L 147.965162 143.379796 
L 148.127733 134.113344 
L 148.290305 152.584232 
L 148.452876 129.697173 
L 148.615447 151.503854 
L 148.940589 130.369554 
L 149.10316 149.352888 
L 149.265731 133.480131 
L 149.428302 154.640543 
L 149.590874 135.164347 
L 149.753445 139.032169 
L 149.916016 156.034264 
L 150.078587 128.753882 
L 150.241158 142.083994 
L 150.403729 131.476045 
L 150.5663 163.626292 
L 150.728871 127.190433 
L 150.891443 137.321841 
L 151.054014 155.854745 
L 151.379156 132.451976 
L 151.541727 148.951418 
L 151.704298 132.605384 
L 152.029441 150.733553 
L 152.192012 139.538087 
L 152.354583 144.969357 
L 152.517154 134.407103 
L 152.679725 138.757994 
L 152.842296 159.073034 
L 153.004867 124.762029 
L 153.167438 146.007304 
L 153.33001 136.055415 
L 153.492581 156.540182 
L 153.655152 130.526226 
L 153.817723 143.644179 
L 153.980294 140.553186 
L 154.142865 148.530364 
L 154.305436 130.983183 
L 154.468007 144.013009 
L 154.630579 72.890788 
L 154.79315 295.488 
L 154.955721 53.568 
L 155.118292 155.107292 
L 155.280863 134.152512 
L 155.443434 141.186399 
L 155.606005 129.429527 
L 155.768577 157.28437 
L 156.093719 130.056212 
L 156.418861 150.361459 
L 156.581432 133.852226 
L 156.744003 146.735172 
L 156.906574 128.982361 
L 157.069146 156.119128 
L 157.231717 122.855862 
L 157.394288 147.130114 
L 157.556859 134.433215 
L 157.71943 141.568285 
L 157.882001 137.596016 
L 158.044572 143.89877 
L 158.207143 128.82569 
L 158.369715 146.689477 
L 158.532286 130.114963 
L 158.694857 143.990161 
L 158.857428 130.878736 
L 159.019999 144.864909 
L 159.18257 126.390757 
L 159.345141 152.701736 
L 159.670284 117.336464 
L 159.832855 161.41331 
L 159.995426 126.511525 
L 160.157997 138.839594 
L 160.320568 138.333676 
L 160.64571 142.185178 
L 160.808282 132.252873 
L 160.970853 147.303106 
L 161.133424 131.919947 
L 161.458566 143.748627 
L 161.621137 136.571125 
L 162.108851 143.438548 
L 162.271422 133.075397 
L 162.433993 147.62624 
L 162.596564 132.43892 
L 162.921706 147.195394 
L 163.084277 132.370377 
L 163.246848 141.153759 
L 163.40942 143.902034 
L 163.571991 137.893038 
L 163.734562 138.927722 
L 163.897133 144.499343 
L 164.059704 134.981564 
L 164.222275 143.236181 
L 164.384846 142.090522 
L 164.547417 138.878762 
L 164.709989 139.733926 
L 164.87256 137.279409 
L 165.035131 145.880008 
L 165.197702 136.026039 
L 165.360273 145.077068 
L 165.522844 138.137837 
L 165.685415 139.185576 
L 165.847987 142.841239 
L 166.010558 137.95179 
L 166.173129 141.82614 
L 166.3357 139.760038 
L 166.498271 141.166815 
L 166.660842 140.598882 
L 166.823413 137.674351 
L 166.985984 142.002395 
L 167.148556 138.630699 
L 167.311127 144.492815 
L 167.473698 134.965244 
L 167.636269 143.640915 
L 167.79884 137.354481 
L 167.961411 142.903255 
L 168.123982 138.647019 
L 168.286553 137.684143 
L 168.449125 142.335321 
L 168.611696 136.669044 
L 168.774267 142.367961 
L 168.936838 138.712299 
L 169.099409 138.947305 
L 169.26198 140.58909 
L 169.424551 140.13866 
L 169.587123 132.88935 
L 169.749694 144.166417 
L 170.074836 134.704126 
L 170.237407 144.293712 
L 170.399978 134.769405 
L 170.562549 138.630699 
L 170.72512 138.833066 
L 170.887692 136.212086 
L 171.212834 141.607453 
L 171.375405 132.951366 
L 171.700547 139.995044 
L 171.863118 139.165992 
L 172.025689 134.364671 
L 172.188261 144.68539 
L 172.350832 127.689823 
L 172.513403 149.849014 
L 172.675974 132.484616 
L 172.838545 144.548303 
L 173.001116 133.646595 
L 173.163687 141.767388 
L 173.326258 136.567861 
L 173.48883 146.607877 
L 173.651401 131.815499 
L 173.813972 149.522615 
L 173.976543 133.375684 
L 174.139114 142.439769 
L 174.301685 142.573592 
L 174.464256 135.288379 
L 174.626828 146.715588 
L 174.789399 138.810218 
L 174.95197 140.04074 
L 175.114541 144.75067 
L 175.277112 137.253297 
L 175.439683 144.215376 
L 175.602254 141.352862 
L 175.764825 141.649885 
L 175.927397 139.691494 
L 176.089968 142.371225 
L 176.252539 138.043182 
L 176.41511 148.931834 
L 176.577681 137.798383 
L 176.740252 143.719251 
L 177.065394 137.958318 
L 177.227966 143.268821 
L 177.390537 143.46466 
L 177.553108 137.178226 
L 177.715679 148.97753 
L 177.87825 133.72493 
L 178.040821 146.7417 
L 178.203392 139.231272 
L 178.365963 143.38306 
L 178.853677 138.06603 
L 179.016248 152.708264 
L 179.178819 132.997062 
L 179.34139 145.129292 
L 179.503961 140.311651 
L 179.666533 140.797985 
L 179.829104 142.589912 
L 179.991675 141.992603 
L 180.154246 136.306742 
L 180.316817 154.333728 
L 180.479388 134.922813 
L 180.80453 145.064012 
L 180.967102 136.352438 
L 181.129673 146.193351 
L 181.292244 145.312075 
L 181.454815 130.973391 
L 181.617386 153.86045 
L 181.779957 133.604163 
L 181.942528 146.862468 
L 182.105099 137.762479 
L 182.592813 146.614405 
L 182.755384 129.367511 
L 182.917955 153.302309 
L 183.080526 138.134573 
L 183.243097 140.970976 
L 183.405669 139.662118 
L 183.56824 146.754756 
L 183.730811 135.317755 
L 183.893382 147.476097 
L 184.218524 137.374065 
L 184.543666 145.031372 
L 184.868809 139.449959 
L 185.03138 143.056662 
L 185.193951 141.698844 
L 185.356522 136.933427 
L 185.519093 150.423475 
L 185.681664 133.117829 
L 185.844235 147.32269 
L 186.006807 136.802868 
L 186.169378 143.810642 
L 186.331949 142.723735 
L 186.49452 137.873455 
L 186.657091 146.392454 
L 186.819662 139.1562 
L 186.982233 142.635608 
L 187.144804 137.573168 
L 187.307376 142.201498 
L 187.469947 142.172122 
L 187.632518 146.095431 
L 187.795089 136.750644 
L 188.120231 146.382662 
L 188.282802 134.700862 
L 188.445374 144.499343 
L 188.607945 143.653971 
L 188.770516 137.654768 
L 188.933087 143.343892 
L 189.095658 140.510754 
L 189.258229 140.448738 
L 189.4208 147.107267 
L 189.583371 135.399354 
L 189.745943 143.36674 
L 189.908514 141.098271 
L 190.071085 141.405086 
L 190.233656 144.659278 
L 190.558798 137.390385 
L 190.721369 143.040342 
L 190.88394 141.088479 
L 191.046512 144.048913 
L 191.209083 138.444652 
L 191.371654 144.737614 
L 191.534225 139.600102 
L 191.696796 138.826538 
L 192.021938 144.953037 
L 192.184509 136.82898 
L 192.347081 148.337789 
L 192.509652 134.664958 
L 192.672223 146.314118 
L 192.834794 139.698022 
L 192.997365 139.577254 
L 193.159936 142.576856 
L 193.322507 143.327573 
L 193.485079 142.341849 
L 193.64765 138.882026 
L 193.810221 143.059926 
L 193.972792 141.852252 
L 194.135363 139.681702 
L 194.297934 143.706195 
L 194.460505 140.438946 
L 194.623076 141.875099 
L 194.785648 139.76983 
L 194.948219 147.113795 
L 195.11079 135.849784 
L 195.273361 146.225991 
L 195.435932 139.479335 
L 195.598503 139.766566 
L 195.761074 143.986897 
L 195.923645 140.58909 
L 196.086217 142.958742 
L 196.248788 139.211688 
L 196.411359 143.702931 
L 196.57393 139.198632 
L 196.736501 143.582163 
L 196.899072 140.788193 
L 197.061643 140.833888 
L 197.224215 141.685788 
L 197.386786 140.922016 
L 197.549357 143.862866 
L 197.711928 138.258605 
L 197.874499 145.250059 
L 198.03707 138.160685 
L 198.199641 143.07951 
L 198.362212 139.857957 
L 198.524784 143.647443 
L 198.849926 140.083172 
L 199.012497 142.958742 
L 199.175068 140.435682 
L 199.337639 141.702108 
L 199.50021 144.407951 
L 199.662781 136.41119 
L 199.825353 147.084419 
L 199.987924 140.595618 
L 200.150495 140.837152 
L 200.313066 144.2676 
L 200.475637 139.662118 
L 200.638208 144.450383 
L 200.800779 137.46872 
L 200.96335 145.782089 
L 201.125922 140.301859 
L 201.288493 144.042385 
L 201.451064 140.021156 
L 201.613635 143.706195 
L 201.776206 140.948128 
L 201.938777 143.154581 
L 202.101348 138.088878 
L 202.426491 145.690697 
L 202.589062 138.167213 
L 202.751633 143.552788 
L 202.914204 142.815127 
L 203.239346 140.112548 
L 203.401917 145.400203 
L 203.72706 138.656811 
L 203.889631 144.727822 
L 204.052202 139.469543 
L 204.214773 147.903679 
L 204.377344 138.464236 
L 204.539915 140.037476 
L 204.702486 145.48833 
L 204.865058 138.421804 
L 205.027629 157.254994 
L 205.1902 117.01333 
L 205.352771 151.206831 
L 205.515342 143.066454 
L 205.677913 145.266379 
L 206.003055 137.220658 
L 206.165627 146.87226 
L 206.328198 137.357745 
L 206.490769 147.632768 
L 206.65334 137.419761 
L 206.815911 147.15949 
L 206.978482 138.487084 
L 207.141053 143.242709 
L 207.303625 139.554407 
L 207.628767 144.874701 
L 207.791338 138.291245 
L 207.953909 144.23496 
L 208.11648 139.567462 
L 208.279051 142.795543 
L 208.441622 140.481378 
L 208.604194 145.139084 
L 208.766765 144.613582 
L 208.929336 133.418116 
L 209.091907 144.923661 
L 209.254478 142.14601 
L 209.417049 145.406731 
L 209.57962 135.970552 
L 209.742191 146.42183 
L 209.904763 144.639694 
L 210.067334 134.132928 
L 210.229905 144.30024 
L 210.392476 139.717606 
L 210.555047 142.208026 
L 210.717618 141.44099 
L 210.880189 147.329218 
L 211.042761 137.573168 
L 211.205332 139.743718 
L 211.367903 144.740878 
L 211.530474 139.058281 
L 211.855616 143.340629 
L 212.018187 141.705372 
L 212.180758 137.537264 
L 212.34333 147.110531 
L 212.505901 138.86897 
L 212.668472 146.186823 
L 212.993614 131.786124 
L 213.156185 151.817196 
L 213.318756 139.038697 
L 213.481327 142.733527 
L 213.80647 137.693935 
L 213.969041 145.540554 
L 214.131612 142.273306 
L 214.294183 143.428756 
L 214.456754 131.649036 
L 214.619325 151.924908 
L 214.781896 136.469941 
L 214.944468 144.290448 
L 215.107039 143.4973 
L 215.26961 136.744116 
L 215.594752 145.403467 
L 215.757323 140.846944 
L 216.082466 144.293712 
L 216.245037 134.57683 
L 216.407608 147.374913 
L 216.570179 138.872234 
L 216.73275 140.063588 
L 216.895321 146.128071 
L 217.220463 137.05093 
L 217.383035 149.832694 
L 217.545606 135.321019 
L 217.870748 147.698048 
L 218.033319 129.165144 
L 218.19589 146.010568 
L 218.521032 139.528295 
L 218.683604 146.571973 
L 218.846175 136.6821 
L 219.008746 144.058705 
L 219.171317 144.78331 
L 219.333888 133.385476 
L 219.496459 146.258631 
L 219.65903 141.69558 
L 219.821601 143.862866 
L 219.984173 136.012983 
L 220.309315 146.392454 
L 220.471886 134.795517 
L 220.634457 143.794322 
L 220.797028 143.924882 
L 220.959599 141.551965 
L 221.122171 134.204736 
L 221.284742 153.181542 
L 221.447313 136.176183 
L 221.609884 135.892216 
L 221.772455 149.104825 
L 221.935026 134.106816 
L 222.097597 148.762107 
L 222.260168 137.282673 
L 222.42274 144.662542 
L 222.585311 137.658032 
L 222.747882 145.700489 
L 222.910453 140.275747 
L 223.073024 141.640093 
L 223.235595 132.197386 
L 223.398166 152.528745 
L 223.560737 139.511975 
L 223.723309 142.413657 
L 223.88588 140.161508 
L 224.048451 143.105622 
L 224.211022 134.429951 
L 224.373593 148.452028 
L 224.536164 137.168434 
L 224.861307 148.233341 
L 225.023878 133.241861 
L 225.186449 138.359788 
L 225.34902 154.258657 
L 225.511591 128.502555 
L 225.674162 149.839222 
L 225.836733 135.973816 
L 225.999304 144.747406 
L 226.161876 144.30024 
L 226.324447 133.042758 
L 226.487018 148.546684 
L 226.649589 141.499741 
L 226.81216 139.949349 
L 226.974731 144.071761 
L 227.137302 143.219861 
L 227.299873 132.771847 
L 227.462445 151.454894 
L 227.625016 127.660447 
L 227.787587 154.911453 
L 228.112729 129.135768 
L 228.2753 148.083198 
L 228.437871 136.897523 
L 228.600442 155.838425 
L 228.763014 129.909332 
L 228.925585 140.403042 
L 229.088156 141.868572 
L 229.250727 152.505897 
L 229.413298 129.171672 
L 229.575869 149.277816 
L 229.73844 136.310006 
L 229.901012 146.29127 
L 230.063583 148.021182 
L 230.226154 125.845672 
L 230.551296 157.894735 
L 230.713867 125.564969 
L 230.876438 154.131361 
L 231.039009 120.309954 
L 231.201581 171.303183 
L 231.364152 124.060272 
L 231.526723 141.258206 
L 231.689294 146.013832 
L 231.851865 138.911402 
L 232.014436 144.936717 
L 232.177007 145.328395 
L 232.50215 130.434834 
L 232.664721 158.335373 
L 232.989863 132.076618 
L 233.315005 151.614829 
L 233.640147 128.218589 
L 233.802719 158.20155 
L 233.96529 139.342248 
L 234.127861 135.392826 
L 234.290432 143.660499 
L 234.453003 144.254544 
L 234.615574 135.017468 
L 234.778145 151.255791 
L 234.940717 131.198606 
L 235.103288 150.0677 
L 235.265859 146.010568 
L 235.42843 128.365468 
L 235.591001 146.350022 
L 235.753572 141.473629 
L 235.916143 133.104773 
L 236.078714 159.924934 
L 236.241286 130.754704 
L 236.403857 139.358567 
L 236.566428 134.573566 
L 236.728999 153.413285 
L 236.89157 133.630275 
L 237.054141 132.337737 
L 237.216712 156.902484 
L 237.379283 123.306292 
L 237.541855 145.178252 
L 237.704426 142.958742 
L 237.866997 132.850182 
L 238.029568 139.247592 
L 238.192139 138.633963 
L 238.35471 141.685788 
L 238.517281 132.886086 
L 238.679853 143.715987 
L 238.842424 128.447067 
L 239.004995 154.689502 
L 239.167566 126.795491 
L 239.492708 140.389987 
L 239.655279 136.492789 
L 239.81785 141.888155 
L 239.980422 132.174538 
L 240.305564 142.795543 
L 240.468135 135.079484 
L 240.630706 140.12234 
L 240.793277 136.24799 
L 240.955848 140.305123 
L 241.118419 138.160685 
L 241.280991 142.557272 
L 241.443562 133.780418 
L 241.606133 142.870615 
L 241.768704 138.35326 
L 241.931275 142.527896 
L 242.093846 136.845299 
L 242.256417 136.894259 
L 242.58156 144.186 
L 242.744131 140.667425 
L 242.906702 140.621729 
L 243.069273 134.380991 
L 243.231844 142.100314 
L 243.394415 141.356126 
L 243.556986 139.577254 
L 243.719558 140.97424 
L 243.882129 139.515239 
L 244.0447 143.81717 
L 244.207271 134.697598 
L 244.369842 143.84981 
L 244.532413 140.014628 
L 244.694984 139.028905 
L 244.857555 139.009321 
L 245.020127 144.447119 
L 245.182698 138.908138 
L 245.345269 139.087657 
L 245.50784 139.776357 
L 245.670411 144.052177 
L 245.832982 137.857135 
L 245.995553 142.018715 
L 246.158124 138.709035 
L 246.320696 139.430375 
L 246.483267 143.291669 
L 246.645838 137.64824 
L 246.808409 142.420185 
L 246.97098 139.469543 
L 247.133551 139.162728 
L 247.296122 141.065631 
L 247.458693 140.938336 
L 247.621265 139.185576 
L 247.783836 140.037476 
L 247.946407 139.955877 
L 248.108978 139.554407 
L 248.271549 143.51362 
L 248.43412 136.026039 
L 248.596691 141.587869 
L 248.759263 137.915886 
L 248.921834 140.177828 
L 249.084405 140.797985 
L 249.246976 138.01707 
L 249.409547 141.016672 
L 249.734689 136.613557 
L 249.89726 141.973019 
L 250.059832 137.194546 
L 250.222403 141.088479 
L 250.384974 132.341001 
L 250.547545 148.709883 
L 250.710116 129.687382 
L 250.872687 139.567462 
L 251.035258 139.981989 
L 251.522972 135.882424 
L 251.685543 139.449959 
L 251.848114 139.22148 
L 252.010685 136.7637 
L 252.173256 141.37571 
L 252.335827 134.11008 
L 252.66097 141.989339 
L 252.823541 137.047666 
L 252.986112 135.653945 
L 253.148683 150.328819 
L 253.311254 122.503352 
L 253.473825 153.07383 
L 253.636396 131.949323 
L 253.961539 146.77434 
L 254.286681 133.401796 
L 254.449252 143.533204 
L 254.611823 135.986872 
L 254.774394 150.505074 
L 254.936965 130.317331 
L 255.099537 148.390012 
L 255.262108 140.086436 
L 255.424679 139.857957 
L 255.58725 137.341425 
L 255.749821 154.451232 
L 255.912392 129.093336 
L 256.074963 146.408774 
L 256.237534 138.474028 
L 256.400106 145.458954 
L 256.562677 137.292465 
L 256.725248 145.860425 
L 256.887819 144.117457 
L 257.212961 134.253696 
L 257.375532 149.196217 
L 257.538104 137.387121 
L 257.863246 146.506693 
L 258.025817 134.916285 
L 258.188388 140.735969 
L 258.350959 151.559341 
L 258.51353 132.957894 
L 258.676101 143.03055 
L 258.838673 143.43202 
L 259.001244 143.024022 
L 259.163815 138.930986 
L 259.326386 144.691918 
L 259.488957 135.86284 
L 259.651528 149.911029 
L 259.814099 132.096202 
L 259.97667 148.47814 
L 260.139242 139.959141 
L 260.301813 142.358169 
L 260.464384 139.443431 
L 260.626955 146.030152 
L 260.789526 134.975036 
L 260.952097 155.198684 
L 261.114668 128.489499 
L 261.277239 146.412038 
L 261.439811 141.333278 
L 261.602382 143.676819 
L 261.764953 139.433639 
L 261.927524 141.104799 
L 262.090095 143.954258 
L 262.252666 142.984854 
L 262.415237 136.64946 
L 262.577809 148.06035 
L 262.74038 136.41119 
L 262.902951 144.525455 
L 263.065522 146.239047 
L 263.228093 133.385476 
L 263.553235 147.890623 
L 263.715806 136.146807 
L 264.040949 145.831049 
L 264.366091 135.758393 
L 264.528662 147.655616 
L 264.691233 133.835906 
L 264.853804 150.123188 
L 265.016375 135.458106 
L 265.178947 143.458132 
L 265.341518 144.437327 
L 265.504089 139.201896 
L 265.66666 139.63927 
L 265.829231 145.772297 
L 265.991802 139.293288 
L 266.154373 142.482201 
L 266.316945 139.338984 
L 266.642087 143.846546 
L 266.804658 136.917107 
L 266.967229 148.856762 
L 267.1298 136.437301 
L 267.292371 142.518104 
L 267.454942 143.340629 
L 267.617514 137.047666 
L 267.780085 144.476495 
L 267.942656 141.385502 
L 268.105227 142.622552 
L 268.267798 139.975461 
L 268.430369 142.59644 
L 268.59294 135.611513 
L 268.755511 149.741302 
L 268.918083 138.660075 
L 269.080654 140.481378 
L 269.243225 140.419362 
L 269.405796 147.071363 
L 269.568367 136.29695 
L 269.730938 142.802071 
L 269.893509 140.811041 
L 270.05608 143.699667 
L 270.218652 138.937513 
L 270.543794 143.673555 
L 270.706365 137.945262 
L 270.868936 145.1195 
L 271.194078 137.563376 
L 271.35665 150.312499 
L 271.519221 130.78408 
L 271.681792 146.673157 
L 272.006934 139.541351 
L 272.169505 142.857559 
L 272.332076 138.891818 
L 272.657219 145.15214 
L 272.81979 135.735545 
L 272.982361 143.950994 
L 273.144932 143.973841 
L 273.307503 137.661296 
L 273.470074 145.814729 
L 273.632645 138.274925 
L 273.795216 142.305945 
L 273.957788 141.786972 
L 274.120359 141.933851 
L 274.28293 143.565843 
L 274.445501 138.947305 
L 274.608072 142.074203 
L 274.770643 140.549922 
L 274.933214 145.919176 
L 275.095785 135.957496 
L 275.258357 144.009745 
L 275.420928 143.471188 
L 275.583499 139.25412 
L 275.74607 143.670291 
L 275.908641 138.108461 
L 276.071212 145.661321 
L 276.233783 139.645798 
L 276.396355 138.774314 
L 276.558926 146.101959 
L 276.721497 139.583782 
L 276.884068 141.610717 
L 277.046639 141.489949 
L 277.20921 139.423847 
L 277.371781 144.78331 
L 277.534352 140.690273 
L 277.696924 140.536866 
L 277.859495 143.977105 
L 278.022066 139.557671 
L 278.184637 139.632742 
L 278.347208 143.232917 
L 278.509779 142.488729 
L 278.67235 140.210467 
L 278.834921 141.140703 
L 278.997493 143.134997 
L 279.322635 139.844901 
L 279.485206 144.564623 
L 279.647777 137.994222 
L 279.810348 146.614405 
L 279.972919 136.584181 
L 280.135491 144.313296 
L 280.298062 143.265557 
L 280.460633 138.581739 
L 280.623204 143.379796 
L 280.785775 143.35042 
L 280.948346 142.456089 
L 281.110917 140.115812 
L 281.273488 144.633166 
L 281.43606 136.740852 
L 281.598631 146.441414 
L 281.923773 140.034212 
L 282.086344 145.139084 
L 282.248915 139.126825 
L 282.574057 142.873879 
L 282.8992 141.189663 
L 283.061771 145.880008 
L 283.224342 138.735146 
L 283.386913 140.755553 
L 283.549484 147.929791 
L 283.712055 137.377329 
L 283.874626 144.675598 
L 284.037198 137.031347 
L 284.199769 146.294534 
L 284.36234 139.348776 
L 284.687482 144.985677 
L 284.850053 135.667001 
L 285.012624 146.47079 
L 285.175196 139.854693 
L 285.337767 144.21864 
L 285.500338 140.213731 
L 285.662909 146.150919 
L 285.82548 136.600501 
L 285.988051 140.357347 
L 286.150622 147.280258 
L 286.313193 137.817967 
L 286.475765 147.29005 
L 286.800907 137.56664 
L 286.963478 140.833888 
L 287.126049 147.489153 
L 287.28862 138.180269 
L 287.451191 143.657235 
L 287.613762 141.160287 
L 287.776334 141.32675 
L 287.938905 147.342273 
L 288.101476 136.228406 
L 288.264047 140.40957 
L 288.426618 148.654395 
L 288.589189 134.713918 
L 288.75176 145.282699 
L 288.914331 138.06603 
L 289.076903 146.568709 
L 289.239474 141.597661 
L 289.402045 140.341027 
L 289.564616 141.157023 
L 289.727187 140.341027 
L 289.889758 141.790236 
L 290.052329 147.427137 
L 290.377472 132.762055 
L 290.540043 148.794747 
L 290.865185 137.155378 
L 291.027756 147.414081 
L 291.190327 132.331209 
L 291.352898 150.279859 
L 291.51547 135.686585 
L 291.678041 149.842486 
L 291.840612 135.941176 
L 292.003183 144.182737 
L 292.165754 135.575609 
L 292.490896 147.743744 
L 292.653467 129.804885 
L 292.816039 150.671538 
L 292.97861 140.034212 
L 293.141181 139.782885 
L 293.303752 146.366342 
L 293.466323 135.915064 
L 293.628894 146.412038 
L 293.791465 136.456885 
L 293.954037 144.714766 
L 294.279179 137.742895 
L 294.44175 146.536069 
L 294.929463 138.656811 
L 295.092034 146.408774 
L 295.254606 138.806954 
L 295.417177 145.442635 
L 295.579748 137.354481 
L 295.742319 143.937938 
L 296.067461 139.942821 
L 296.230032 143.533204 
L 296.392603 138.764522 
L 296.717746 144.855117 
L 296.880317 140.063588 
L 297.042888 143.36674 
L 297.205459 144.30024 
L 297.36803 126.469093 
L 297.530601 158.172174 
L 297.693172 136.052151 
L 297.855744 133.359364 
L 298.018315 152.463465 
L 298.343457 136.499317 
L 298.506028 148.168062 
L 298.668599 134.880381 
L 298.83117 151.376558 
L 298.993742 126.658404 
L 299.156313 150.394099 
L 299.318884 139.208424 
L 299.481455 144.629902 
L 299.644026 140.060324 
L 299.806597 142.221082 
L 300.131739 138.48382 
L 300.294311 147.146434 
L 300.456882 136.73106 
L 300.782024 145.10318 
L 300.944595 135.383034 
L 301.107166 149.072185 
L 301.269737 137.687407 
L 301.432308 141.927323 
L 301.59488 139.218216 
L 301.757451 143.944466 
L 301.920022 141.525853 
L 302.082593 136.910579 
L 302.245164 146.617669 
L 302.407735 142.518104 
L 302.570306 134.051329 
L 302.732877 149.268024 
L 303.05802 136.809396 
L 303.220591 144.727822 
L 303.383162 141.685788 
L 303.545733 141.587869 
L 303.708304 140.801249 
L 303.870875 141.212511 
L 304.033447 145.609098 
L 304.196018 136.078263 
L 304.52116 144.496079 
L 304.846302 138.940777 
L 305.008873 147.299842 
L 305.171444 130.679633 
L 305.334016 155.502235 
L 305.496587 132.083146 
L 305.659158 143.826962 
L 305.821729 147.440193 
L 305.9843 135.017468 
L 306.146871 143.556051 
L 306.309442 138.447916 
L 306.634585 144.998733 
L 306.959727 136.009719 
L 307.122298 156.507542 
L 307.44744 127.92483 
L 307.610011 161.935548 
L 307.772583 117.232017 
L 307.935154 163.916787 
L 308.097725 130.75144 
L 308.260296 145.592778 
L 308.422867 138.092142 
L 308.585438 145.687433 
L 308.91058 139.306344 
L 309.073152 134.028481 
L 309.235723 149.64991 
L 309.398294 144.30024 
L 309.560865 131.21819 
L 309.723436 151.686637 
L 309.886007 132.686983 
L 310.048578 154.529567 
L 310.211149 135.588665 
L 310.373721 132.90567 
L 310.536292 155.13014 
L 310.698863 139.117033 
L 310.861434 141.705372 
L 311.024005 128.789786 
L 311.186576 161.223999 
L 311.349147 125.225515 
L 311.511718 148.4455 
L 311.67429 144.946509 
L 311.836861 134.782461 
L 311.999432 150.691122 
L 312.162003 137.112946 
L 312.324574 144.270864 
L 312.487145 133.444228 
L 312.649716 148.87961 
L 312.812288 149.300664 
L 312.974859 115.365018 
L 313.13743 167.72912 
L 313.300001 90.09525 
L 313.462572 221.519584 
L 313.625143 108.644474 
L 313.950285 161.19136 
L 314.112857 122.565367 
L 314.437999 152.450409 
L 314.763141 130.78408 
L 314.925712 146.526277 
L 315.088283 144.388368 
L 315.250854 139.338984 
L 315.413426 141.349598 
L 315.738568 142.62908 
L 315.901139 128.838746 
L 316.06371 162.310906 
L 316.226281 124.690221 
L 316.388852 156.657685 
L 316.551423 133.287556 
L 316.713995 131.613132 
L 316.876566 153.246821 
L 317.039137 137.710255 
L 317.201708 136.789812 
L 317.364279 136.655988 
L 317.689421 145.527498 
L 317.851993 129.638422 
L 318.014564 150.563826 
L 318.177135 126.997858 
L 318.339706 145.53729 
L 318.502277 132.713095 
L 318.664848 146.797188 
L 318.827419 130.069268 
L 318.98999 144.825741 
L 319.152562 134.635582 
L 319.315133 141.254942 
L 319.477704 124.48459 
L 319.640275 145.204364 
L 319.802846 145.361035 
L 319.965417 132.278985 
L 320.290559 139.22148 
L 320.453131 136.261046 
L 320.615702 145.047692 
L 320.778273 133.519299 
L 320.940844 144.975885 
L 321.103415 131.352014 
L 321.265986 135.660473 
L 321.428557 148.246397 
L 321.591129 135.84652 
L 321.7537 140.109284 
L 321.916271 132.742471 
L 322.078842 149.039545 
L 322.241413 131.133327 
L 322.403984 143.040342 
L 322.566555 140.337763 
L 322.729126 142.19497 
L 323.054269 133.463812 
L 323.21684 153.064038 
L 323.379411 130.48053 
L 323.704553 146.141127 
L 323.867124 138.297773 
L 324.029695 140.236579 
L 324.192267 136.244726 
L 324.354838 147.084419 
L 324.517409 136.388342 
L 324.67998 142.319001 
L 324.842551 137.834287 
L 325.005122 140.729441 
L 325.167693 140.181092 
L 325.330264 141.506269 
L 325.492836 140.882848 
L 325.655407 139.087657 
L 325.980549 142.09705 
L 326.305691 137.876719 
L 326.468262 143.575635 
L 326.630834 138.875498 
L 326.793405 137.654768 
L 326.955976 144.864909 
L 327.118547 136.192503 
L 327.281118 145.752713 
L 327.443689 135.343867 
L 327.60626 140.944864 
L 327.768831 141.692316 
L 327.931403 138.327148 
L 328.093974 141.721692 
L 328.256545 138.346732 
L 328.419116 141.444254 
L 328.581687 138.513195 
L 328.744258 141.538909 
L 328.906829 142.093786 
L 329.0694 133.506243 
L 329.231972 144.339408 
L 329.394543 137.315313 
L 329.557114 139.681702 
L 329.719685 136.24799 
L 329.882256 145.491594 
L 330.044827 134.397311 
L 330.207398 139.378151 
L 330.369969 139.257384 
L 330.532541 138.141101 
L 330.695112 144.075025 
L 330.857683 131.179022 
L 331.182825 144.868173 
L 331.345396 131.394445 
L 331.670539 142.792279 
L 331.995681 132.745735 
L 332.158252 139.897125 
L 332.320823 139.247592 
L 332.483394 142.21129 
L 332.645965 132.974214 
L 332.808536 142.593176 
L 333.133679 135.582137 
L 333.29625 145.031372 
L 333.458821 134.364671 
L 333.621392 134.361407 
L 333.783963 153.95837 
L 333.946534 129.889749 
L 334.109105 142.341849 
L 334.271677 136.74738 
L 334.434248 144.189264 
L 334.596819 138.921194 
L 334.75939 141.747804 
L 334.921961 135.549498 
L 335.084532 148.631547 
L 335.247103 131.544589 
L 335.409675 151.09912 
L 335.572246 133.235333 
L 335.734817 140.432418 
L 335.897388 153.713571 
L 336.059959 134.948924 
L 336.22253 132.931782 
L 336.385101 153.609124 
L 336.547672 129.935444 
L 336.710244 151.09912 
L 336.872815 137.060722 
L 337.035386 145.615626 
L 337.197957 135.487482 
L 337.360528 149.088505 
L 337.523099 129.344663 
L 337.68567 156.474902 
L 337.848241 129.409943 
L 338.010813 152.009771 
L 338.173384 132.079882 
L 338.335955 149.600951 
L 338.661097 133.147205 
L 338.986239 150.064436 
L 339.14881 128.091293 
L 339.311382 149.751094 
L 339.473953 139.740454 
L 339.636524 144.574415 
L 339.799095 135.360187 
L 339.961666 145.622154 
L 340.124237 141.248414 
L 340.286808 146.304326 
L 340.44938 134.570302 
L 340.611951 144.440591 
L 340.774522 142.061147 
L 340.937093 144.483023 
L 341.099664 140.432418 
L 341.424806 138.800426 
L 341.587377 152.391657 
L 341.749949 130.265107 
L 341.91252 148.337789 
L 342.237662 139.547879 
L 342.562804 142.090522 
L 342.725375 140.086436 
L 342.887946 148.128894 
L 343.050518 135.242683 
L 343.213089 146.258631 
L 343.37566 135.066428 
L 343.538231 149.049337 
L 343.700802 139.511975 
L 343.863373 140.915488 
L 344.025944 135.706169 
L 344.188516 158.25051 
L 344.351087 128.655962 
L 344.513658 143.885714 
L 344.676229 143.12847 
L 344.8388 141.754332 
L 345.001371 139.179048 
L 345.163942 146.676421 
L 345.326513 136.463413 
L 345.489085 145.697225 
L 345.651656 136.349174 
L 345.814227 144.815949 
L 345.976798 141.019936 
L 346.139369 142.684568 
L 346.30194 137.697199 
L 346.464511 146.046472 
L 346.627082 138.150893 
L 346.789654 144.199056 
L 346.952225 138.846122 
L 347.114796 143.696403 
L 347.277367 141.065631 
L 347.439938 142.697624 
L 347.602509 138.088878 
L 347.76508 144.225168 
L 347.927651 138.83633 
L 348.090223 145.390411 
L 348.252794 138.157421 
L 348.415365 144.107665 
L 348.740507 138.513195 
L 348.903078 147.831871 
L 349.065649 135.52665 
L 349.228221 140.696801 
L 349.390792 149.881653 
L 349.553363 129.863637 
L 349.715934 150.900017 
L 349.878505 137.19781 
L 350.041076 142.62908 
L 350.203647 139.410791 
L 350.366218 147.427137 
L 350.52879 131.707788 
L 350.691361 150.505074 
L 350.853932 135.735545 
L 351.016503 145.739657 
L 351.179074 137.292465 
L 351.341645 145.896328 
L 351.504216 140.546658 
L 351.666787 140.889376 
L 351.829359 138.06603 
L 351.99193 145.139084 
L 352.317072 139.489127 
L 352.479643 145.315339 
L 352.642214 139.900389 
L 352.804785 139.061545 
L 353.129928 143.637651 
L 353.292499 142.332057 
L 353.45507 139.854693 
L 353.617641 142.057883 
L 353.780212 140.412834 
L 353.942783 143.902034 
L 354.105354 137.66456 
L 354.267926 145.478538 
L 354.430497 134.678014 
L 354.593068 154.686238 
L 354.755639 131.743692 
L 354.91821 142.743319 
L 355.243352 142.952214 
L 355.405923 138.643755 
L 355.568495 142.697624 
L 355.731066 142.726999 
L 355.893637 144.2676 
L 356.056208 134.074177 
L 356.218779 147.244354 
L 356.38135 139.662118 
L 356.869064 143.539732 
L 357.031635 137.827759 
L 357.194206 143.36674 
L 357.356777 142.26025 
L 357.519348 137.011763 
L 357.681919 145.312075 
L 357.84449 141.287582 
L 358.007062 140.145188 
L 358.169633 142.397337 
L 358.332204 138.170477 
L 358.494775 148.301885 
L 358.657346 136.917107 
L 358.819917 142.726999 
L 358.982488 140.096228 
L 359.145059 143.986897 
L 359.307631 140.52381 
L 359.470202 140.579298 
L 359.632773 140.494434 
L 359.795344 145.804937 
L 359.957915 139.547879 
L 360.120486 138.679659 
L 360.283057 146.235783 
L 360.445628 140.807777 
L 360.770771 142.26025 
L 360.933342 137.429553 
L 361.095913 148.771899 
L 361.258484 137.762479 
L 361.421055 147.244354 
L 361.583626 134.57683 
L 361.746197 147.087683 
L 361.908769 140.347555 
L 362.07134 141.835932 
L 362.233911 142.16233 
L 362.396482 143.324309 
L 362.559053 141.871836 
L 362.721624 139.126825 
L 362.884195 146.033416 
L 363.046767 138.447916 
L 363.209338 144.404687 
L 363.53448 139.900389 
L 363.697051 145.742921 
L 363.859622 138.41854 
L 364.022193 146.761284 
L 364.184764 137.409969 
L 364.509907 146.02036 
L 364.672478 140.403042 
L 364.835049 144.747406 
L 364.99762 138.627435 
L 365.160191 146.712324 
L 365.322762 135.513594 
L 365.647905 145.736393 
L 365.810476 138.421804 
L 366.135618 146.105223 
L 366.298189 136.695156 
L 366.46076 144.101137 
L 366.785902 140.510754 
L 366.948474 144.721294 
L 367.111045 136.969331 
L 367.273616 149.183161 
L 367.436187 137.383857 
L 367.598758 137.547056 
L 367.761329 148.745787 
L 367.9239 139.848165 
L 368.086472 143.954258 
L 368.249043 136.009719 
L 368.411614 145.596042 
L 368.574185 146.177031 
L 368.736756 135.696377 
L 368.899327 142.651928 
L 369.061898 141.790236 
L 369.224469 143.562579 
L 369.387041 143.46466 
L 369.549612 139.322664 
L 369.712183 141.450782 
L 369.874754 138.77105 
L 370.037325 145.984456 
L 370.199896 139.560935 
L 370.362467 144.979149 
L 370.525038 138.979945 
L 370.850181 143.507092 
L 371.012752 143.846546 
L 371.175323 131.028879 
L 371.337894 151.88574 
L 371.500465 137.416497 
L 371.825608 144.479759 
L 371.988179 140.256163 
L 372.15075 141.685788 
L 372.475892 139.463015 
L 372.638463 153.984482 
L 372.801034 127.676767 
L 372.963605 146.092167 
L 373.126177 140.161508 
L 373.288748 143.745363 
L 373.451319 143.725779 
L 373.61389 138.098669 
L 373.776461 142.753111 
L 373.939032 143.458132 
L 374.101603 132.827335 
L 374.264174 152.969383 
L 374.426746 133.049286 
L 374.589317 148.517308 
L 374.751888 136.332854 
L 375.07703 146.111751 
L 375.239601 136.6821 
L 375.402172 140.977504 
L 375.564743 149.989365 
L 375.727315 130.973391 
L 375.889886 146.80698 
L 376.052457 133.581315 
L 376.215028 154.598111 
L 376.377599 138.673131 
L 376.54017 133.819586 
L 376.702741 150.319027 
L 376.865313 133.235333 
L 377.027884 147.081155 
L 377.190455 143.46466 
L 377.353026 136.156599 
L 377.515597 142.67804 
L 377.678168 143.210069 
L 377.840739 151.373294 
L 378.00331 120.518849 
L 378.165882 154.160737 
L 378.491024 136.169655 
L 378.653595 146.820036 
L 378.816166 139.955877 
L 378.978737 139.316136 
L 379.141308 144.780046 
L 379.466451 138.013806 
L 379.629022 141.281054 
L 379.791593 148.194173 
L 379.954164 139.988516 
L 380.116735 141.920795 
L 380.279306 132.752263 
L 380.441877 155.296604 
L 380.604448 126.642084 
L 380.76702 150.769457 
L 380.929591 139.521767 
L 381.254733 141.081951 
L 381.417304 144.189264 
L 381.579875 143.36674 
L 381.742446 132.321417 
L 382.067589 149.617271 
L 382.23016 135.993399 
L 382.392731 142.870615 
L 382.555302 138.823274 
L 382.717873 140.527074 
L 382.880444 144.355728 
L 383.043015 144.499343 
L 383.205587 131.557645 
L 383.368158 153.677667 
L 383.530729 131.714316 
L 383.6933 145.716809 
L 383.855871 139.887333 
L 384.018442 147.136642 
L 384.181013 136.107639 
L 384.343584 142.935894 
L 384.506156 138.842858 
L 384.668727 145.98772 
L 384.831298 136.959539 
L 384.993869 147.391233 
L 385.15644 136.995443 
L 385.319011 138.800426 
L 385.481582 147.57728 
L 385.644154 148.07667 
L 385.806725 124.040688 
L 385.969296 148.869818 
L 386.294438 141.959963 
L 386.457009 141.140703 
L 386.61958 142.462617 
L 386.782151 131.662092 
L 386.944723 154.346784 
L 387.107294 130.558865 
L 387.269865 146.519749 
L 387.432436 142.106842 
L 387.595007 146.558917 
L 387.757578 135.751865 
L 388.08272 144.473231 
L 388.245292 143.673555 
L 388.407863 133.401796 
L 388.570434 154.614431 
L 388.733005 135.973816 
L 388.895576 136.956275 
L 389.220718 149.868597 
L 389.383289 126.090471 
L 389.545861 161.054272 
L 389.708432 127.944414 
L 389.871003 151.425518 
L 390.033574 127.853022 
L 390.196145 151.575661 
L 390.358716 135.683321 
L 390.521287 147.188866 
L 390.683859 146.343494 
L 391.009001 129.191256 
L 391.171572 157.914319 
L 391.334143 131.117007 
L 391.496714 147.182338 
L 391.659285 138.633963 
L 391.821856 149.826166 
L 391.984428 129.945236 
L 392.146999 153.112998 
L 392.30957 121.677564 
L 392.472141 167.996767 
L 392.634712 127.764895 
L 392.797283 145.439371 
L 392.959854 146.748228 
L 393.122425 126.926051 
L 393.447568 154.500191 
L 393.610139 110.005555 
L 393.77271 186.147785 
L 393.935281 123.221428 
L 394.260423 147.743744 
L 394.422994 133.914241 
L 394.585566 152.310058 
L 394.910708 131.482573 
L 395.073279 151.82046 
L 395.23585 127.50704 
L 395.398421 156.034264 
L 395.560992 127.771423 
L 395.723564 148.337789 
L 395.886135 145.318603 
L 396.211277 131.133327 
L 396.373848 152.195818 
L 396.69899 137.171698 
L 396.861561 132.203914 
L 397.024133 161.188096 
L 397.186704 123.172469 
L 397.349275 151.396142 
L 397.511846 128.603739 
L 397.674417 149.23212 
L 397.836988 134.508287 
L 397.999559 134.873853 
L 398.16213 148.314941 
L 398.324702 131.632716 
L 398.487273 144.026065 
L 398.487273 144.026065 
" clip-path="url(#p838c82fdfd)" style="fill: none; stroke: #008000; stroke-width: 1.5; stroke-linecap: square"/>
   </g>
   <g id="patch_3">
    <path d="M 57.6 307.584 
L 57.6 41.472 
" style="fill: none; stroke: #000000; stroke-width: 0.8; stroke-linejoin: miter; stroke-linecap: square"/>
   </g>
   <g id="patch_4">
    <path d="M 414.72 307.584 
L 414.72 41.472 
" style="fill: none; stroke: #000000; stroke-width: 0.8; stroke-linejoin: miter; stroke-linecap: square"/>
   </g>
   <g id="patch_5">
    <path d="M 57.6 307.584 
L 414.72 307.584 
" style="fill: none; stroke: #000000; stroke-width: 0.8; stroke-linejoin: miter; stroke-linecap: square"/>
   </g>
   <g id="patch_6">
    <path d="M 57.6 41.472 
L 414.72 41.472 
" style="fill: none; stroke: #000000; stroke-width: 0.8; stroke-linejoin: miter; stroke-linecap: square"/>
   </g>
  </g>
 </g>
 <defs>
  <clipPath id="p838c82fdfd">
   <rect x="57.6" y="41.472" width="357.12" height="266.112"/>
  </clipPath>
 </defs>
</svg>
